<?xml version="1.0" encoding="UTF-8"?>
<svg version="1.1" viewBox="0 0 1024 1024" width="1280" height="1280" xmlns="http://www.w3.org/2000/svg">
<path transform="translate(0)" d="m0 0h1024v1024h-1024z" fill="#EEDCBF"/>
<path transform="translate(768,219)" d="m0 0 7 6 14 7 16 4 7 1h31l19-3 10-2-1 14-4 31-3 28-2 26-6 4-18 6-11 2-35 2-1 2-5 69-1 23v127l2 42 3 43 3 52 1 13v10l-11-2-12-1h-21l-55 7h-23l-25-3-48-7-29-3-17-1h-73l-54 3-37 5-23 4h-25l-49-6h-26l-20 3-11 4-5 3 1-16 6-81 3-85 1-42v-79l-3-64-1-18h-32l-21-5-20-8-7-5-1-39-3-41v-21l14 7 15 4 18 2h12l15-2 13-4 15-8 2-1v23l-17 6-9 6-1 5 3 2h10l37-10 16-3 11-1h13l29 3 63 10 25 3 25 2 24 1h40l45-3 102-12 11-1h32l25 3 38 7h17l5-1-1-7-6-4-14-4-13-2-2-1 2-25z" fill="#F9EED9"/>
<path transform="translate(98,533)" d="m0 0 18 2 24-1 9 4 10 9 9 8v12l-28 1-15 4-6 3 10 2h39v37l-2 35 2 2-2 1-2 22-1 5h40l19 2 11 3v5l-17-4-26-3-15 1h-13l-1 16-4 35-5 33 16-5 7-1 17-1h11l23 2 20 4 13 5v2h3v-26h-11l-16-3-5-4-1-6 4-5 10-4 16-3 7-1h26l49 6h25l37-6 23-3 54-3h73l28 2 40 5 40 6 11 1h23l55-7h21l17 2 5 2 3 3-1 7-6 3-7 1-20 1v33l9-6 12-4 11-2 12-1h17l19 2 15 4 10 5v-16l-6-74-1-24-9-2-12-4-11-2-30-2v-3l2-1h23l20 3 15 4 2 1-1-10-1-41v-25l11 1h28l8-2-11-5-15-3-20-1v-18l10-8 14-5h30l13-2 1 128v120l-2 20-5 20-6 16-10 19-10 14-11 12-12 12-17 13-15 9-17 8-15 5-10 2-3 9-7 23-4 7-1-2v-12l-8-8-2 1-6-4 4 5 8 11 2 11-6 4-8 1-8-4-12-20-4-5-9-4-5-1h-8l-14 3-26 9-18 6-21 6-18 5-22 4-13 2-24 2-44 2h-17l-35-2-26-1-40-7-28-6-42-10-25-4h-24l-8 3-3 5-2 11-2 15-3 3-2 1h-11l-5-3-1-2-3-1-2-5v-25l3-22-17-2-21-6-20-9-17-10-14-11-10-9-9-9-12-16-9-16-7-16-5-17-4-22-1-9-1-246z" fill="#DBB77C"/>
<path transform="translate(767,36)" d="m0 0h1l1 11 3-10 8 1 5 4 4 8 3 14v35l8 1 15 4 19 7 23 12 12 9 10 9 11 11 11 15 11 19 7 19 5 21 2 14 1 13v198l-5 9-10 15h-2l-1 5-4 7-7 8-7 9-2 3h-2l-2-21-2-9-2-4-2-1-3 15-1 12v11l2 9-1 5-10 13-5 7h-2l-1-2v-63l-18-4-13-2-12-1h-23l-7 1v-3l7-3h25l23 2 16 3 2 1v-30l1-60 2-44-12 4-17 3-31 2-10-1 1-3 35-2 15-3 18-7 1-1 3-34 5-45 3-20-15 4-14 2h-31l-20-4-12-5-9-6-2-2-1 2-2 22-1 3 19 3 12 4 5 4v7l-5 2h-17l-44-8-19-2h-32l-37 4-66 8-38 3-17 1h-40l-37-2-30-3-78-12-21-2h-13l-17 2-25 6-22 6h-10l-4-3 1-5 5-4 10-5 9-3h3l-1-22-8 5-13 6-13 3-10 1h-12l-18-2-15-4-12-6-1-1v20l3 41v39l16 8 18 6 14 3h30l2 1v6l-14 1h-14l-22-3-17-5-12-6 1 28 4 49 1 7 3 2h-4l1 4v11l5 1 3 2v2l5 2 16 7 14 3 34 3v4l-6 1h-20l-20-4-17-6-11-7-1-1v21l2 55v26h-2l-14-19-5-7 2-9v-26l-3-17-1-1-4 10-2 13-1 15-4-4-11-14-7-10-13-19-6-8 1-204 3-23 5-21 5-13 10-19 9-13 11-13 11-11 13-10 16-10 14-7 12-5 14-4 19-4v-34l2-8 4-4 9-1 10 4 5 6 5 22 6 1h17l26-3 72-11 44-6 20-2 17-1h57l32 2 35 4 35 6 42 8 23 3h18l11-2 14-7 5-6 4-11 2-13 7-6z" fill="#DBB77D"/>
<path transform="translate(98,533)" d="m0 0 18 2 24-1 9 4 10 9 9 8v12l-28 1-15 4-6 3 10 2h39v37l-2 35 2 2-2 1-2 22-1 5h40l19 2 11 3v5l-17-4-26-3-15 1h-13l-1 16-4 35-5 33 16-5 7-1 17-1h11l23 2 20 4 13 5v2h3v-26h-11l-16-3-5-4-1-6 4-5 10-4 16-3 7-1h26l49 6h25l37-6 23-3 54-3h73l28 2 40 5 40 6 11 1h23l55-7h21l17 2 5 2 3 3-1 7-6 3-7 1-20 1v33l9-6 12-4 11-2 12-1h17l19 2 15 4 10 5v-16l-6-74-1-24-9-2-12-4-11-2-30-2v-3l2-1h23l20 3 15 4 2 1-1-10-1-41v-25l11 1h28l8-2-11-5-15-3-20-1v-18l10-8 14-5h30l13-2 1 128v120l-2 20-5 20-6 16-10 19-10 14-11 12-12 12-17 13-15 9-17 8-15 5-10 2-3 9-7 23-4 7-1-2v-12l-6-21-6-18-6-26-3-19-2-21-1-21-1-39-1-21v-28l-28 3-21 1h-14l-2-1 2 8v6h-4l1-9-6 2v-7l-21-1-3 6 1 6 4 4-1 4-4-1-5-5-4 8h-2l2-10 1-4-4-4v-2l-5 1v-5l-15-1 5 4 1 2v6l-3 3h-1l-1-8-6 1-1-1v-7l1-2-22-1-39-3-21-1h-47l-42 2-36 3-11 2h-5v5l13 2v15l-2 6h-3l1-15h-7l-5-3 1-9-9 2v2l4 1 2 5-1 21-1 2h-2v-20l-3-3-2-1-1 15-3 1v-14l3-9-5 2 1 1v10h-3v-6l-4-1v-4l-10 1v8l-3 1-1-9-16 2-22 1h-27l-22-1-5-1v36l-3 7-9 7-2 37-5 68-3 27-1 2-13-1-17-4-16-6-17-8-14-9-13-10-10-9-9-9-12-16-9-16-7-16-5-17-4-22-1-9-1-246z" fill="#242A2E"/>
<path transform="translate(772,37)" d="m0 0 8 1 5 4 4 8 3 14v35l8 1 15 4 19 7 23 12 12 9 10 9 11 11 11 15 11 19 7 19 5 21 2 14 1 13v198l-5 9-10 15h-2l-1 5-4 7-7 8-7 9-2 3h-2l-2-21-2-9-2-4-2-1-3 15-1 12v11l2 9-1 5-10 13-5 7h-2l-1-2v-63l-18-4-13-2-12-1h-23l-7 1v-3l7-3h25l23 2 16 3 2 1v-30l1-60 2-44-12 4-17 3-31 2-10-1 1-3 35-2 15-3 18-7 1-1 3-34 5-45 3-20-15 4-14 2h-31l-20-4-12-5-9-6-2-2-1 2-2 22-1 3 19 3 12 4 5 4v7l-5 2h-17l-44-8-19-2h-32l-37 4-66 8-38 3-17 1h-40l-37-2-30-3-78-12-21-2h-13l-17 2-25 6-22 6h-10l-4-3 1-5 5-4 10-5 9-3h3l-1-22-8 5-13 6-13 3-10 1h-12l-18-2-15-4-12-6-1-1v20l3 41v39l16 8 18 6 14 3h30l2 1v6l-14 1h-14l-22-3-17-5-12-6 1 28 4 49 1 7 3 2h-4l1 4v11l5 1 3 2v2l5 2 16 7 14 3 34 3v4l-6 1h-20l-20-4-17-6-11-7-1-1v21l2 55v26h-2l-14-19-5-7 2-9v-26l-3-17-1-1-4 10-2 13-1 15-4-4-11-14-7-10-13-19-6-8 1-204 3-23 5-21 5-13 10-19 9-13 11-13 11-11 13-10 16-10 14-7 12-5 14-4 19-4h3l4 35 2 33 2 40 9 4 2 2 1 4 1 32 18-3 30-2-1-4h-2l1-5 2-6-6-6 1-5h3l6 4h3l-2 3 8 6-2-9-3-1 2-7 4 2 2 2-1 16 3 3v7l18 1 37 4 32 4 7-1 1 3 10-1 3-2 5 1 1 4 4-1 2-7 15 3 1 3-1 3 16 1v-2h-7l-4-2v-7l3 1 11 1 2 1-2 8 10-1-4-5 2-5 4 2 2 5v4h7l-1-4h-4l1-5 4-3 2 4 3 1-1 6h12v-2l-4-2 2-4 3-1 4 5 1 2 4-8 5 3-2 5-3 3 34-2-1-3 1-2 4 2 1 2 6 1 1-3h3v2l46-3 59-5h53l23 2v-9l3-23 3-6 3-5-3-1-5-43-3-26-1-16v-24l2-19 5-17z" fill="#252A2E"/>
<path transform="translate(859,339)" d="m0 0h2v21l-1 23-1 60-1 30-27-4-14-1h-25l-4 2h-3v3l7-2h23l20 2 21 5 2 1 1 65h2l2-4 13-17-1-7-1-6v-11l2-18 3-9 3 1 3 7 2 13v14h2l2-4 11-14 5-6 3-8h2l2-5 11-16 2-3 3 1 1-9 15-31 7-11 5-5 4 1-1 13-3 10-6 12h-2l-1 4 10-6 11-4h8v2h-2l-1 4-7 7h-2l-2 4h-3l-1 3-12 9h-3l-1 3-8 6-8-1v-3l-1 2v9l-1 4 14-5 5-1h13l9 2 5 2-1 3-5 3-11 4-8 3-20 3-1 31 8-1h10l-2 4-2 2h-3v2h-3v2l-5 1v2h-2v129h-1l-1-127-12 2h-30l-14 5-9 7-1 18h20l18 4 9 5-3 2-6 1h-28l-11-2 2 66v10l-17-4-20-3h-25v3h17l19 2 15 4 11 4 2 24 6 74v17l-17-7-16-3-12-1h-17l-18 2-14 4-6 3-4 3h-2v-33l2-1 18-1 10-2 3-3v-5l-2-3v-10l-3-45-3-49-2-32-1-24v-127l2-38 4-54h14l28-2 21-4z" fill="#DBB77C"/>
<path transform="translate(98,533)" d="m0 0 18 2 24-1 9 4 10 9 9 8v12l-28 1-15 4-6 3 10 2h39v37l-2 35 2 2-2 1-2 22-1 5h40l19 2 11 3v5l-17-4-26-3-15 1h-13l-1 16-4 35-5 33 16-5 7-1 17-1h11l23 2 20 4 13 5v2h3v-23l2 4 1 17 3-1v14l-3 7-9 7-2 37-5 68-3 27-1 2-13-1-17-4-16-6-17-8-14-9-13-10-10-9-9-9-12-16-9-16-7-16-5-17-4-22-1-9-1-246z" fill="#242A2E"/>
<path transform="translate(157,339)" d="m0 0 16 7 19 5 17 2h14l13-1 2-3 3 54 1 26v79l-2 75-2 52-6 81-1 16-1 6 5 5 16 3 11 1 1 14v13l-4-1v-2l-10-3-17-4-13-2-16-1h-11l-17 1-15 3-9 3 6-42 5-43 28-2 26 3 12 3 5 2v-5l-19-3-11-1-40-1 1-19 1-8v-3l2-35 1-37-9 1h-30l-10-2-1-2 13-5 9-2h28l-1-12-12-11-9-7-8-2-22 1-19-2-13-8-6-5 3-2h17l-1-29-14-2-16-5-15-6v-4l7-3 5-1h16l13 4 4 2-2-7-10-7-2-3 5-2h4l4-4 4 4 13 19 8 12 13 16 3 5 2-22 3-11 3-5 2 2 3 17v26l-2 9 14 19 4 5v2h2l-3-81v-22l12 7 12 5 14 4 12 2h26v-4h-13l-27-3-16-5-13-7-3-3-5-2-1-15v-2l-3-31-2-25z" fill="#DBB77C"/>
<path transform="translate(240,97)" d="m0 0h3l4 35 2 33 2 40 9 4 2 2 1 4 1 32h-1l-3-14-2 16h-1l-1-22-8 5-13 6-13 3-10 1h-12l-18-2-15-4-12-6-1-1v20l3 41v39l16 8 18 6 14 3h30l2 1v6l-14 1h-14l-22-3-17-5-12-6 1 28 4 49 1 7 3 2h-4l1 4v11l5 1 3 2v2l5 2 16 7 14 3 34 3v4l-6 1h-20l-20-4-17-6-11-7-1-1v21l2 55v26h-2l-14-19-5-7 2-9v-26l-3-17-1-1-4 10-2 13-1 15-4-4-11-14-7-10-13-19-6-8 1-204 3-23 5-21 5-13 10-19 9-13 11-13 11-11 13-10 16-10 14-7 12-5 14-4z" fill="#242A2E"/>
<path transform="translate(480,715)" d="m0 0h73l28 2 40 5 40 6 11 1h23l55-7h21l17 2 5 2 3 3-1 7-6 3-7 1-21 1-1 2-2-1-42 4h-23l-2-1 2 8v6h-4l1-9-6 2v-7l-21-1-3 6 1 6 4 4-1 4-4-1-5-5-4 8h-2l2-10 1-4-4-4v-2l-5 1v-5l-15-1 5 4 1 2v6l-3 3h-1l-1-8-6 1-1-1v-7l1-2-22-1-39-3-21-1h-47l-42 2-36 3-11 2h-5v5l13 2v15l-2 6h-3l1-15h-7l-5-3 1-9-9 2v2l4 1 2 5-1 21-1 2h-2v-20l-3-3-2-1-1 15-3 1v-14l3-9-5 2 1 1v10h-3v-6l-4-1v-4l-10 1v8l-3 1-1-9-16 2-22 1h-27l-22-1-5-1v22l-3 1-1-2-1-15-1-7h-11l-16-3-5-4-1-6 4-5 10-4 16-3 7-1h26l49 6h25l37-6 23-3z" fill="#192026"/>
<path transform="translate(322,212)" d="m0 0 4 2 2 2-1 16 3 3v7l18 1 37 4 32 4 7-1 1 3 10-1 3-2 5 1 1 4 4-1 2-7 15 3 1 3-1 3 16 1v-2h-7l-4-2v-7l3 1 11 1 2 1-2 8 10-1-4-5 2-5 4 2 2 5v4h7l-1-4h-4l1-5 4-3 2 4 3 1-1 6h12v-2l-4-2 2-4 3-1 4 5 1 2 4-8 5 3-2 5-3 3 34-2-1-3 1-2 4 2 1 2 6 1 1-3h3v2l46-3 59-5h53l14 1h12v2h10l17 4 8 4 2 2v7l-5 2h-17l-44-8-19-2h-32l-37 4-66 8-38 3-17 1h-40l-37-2-30-3-78-12-21-2h-13l-17 2-25 6-22 6h-10l-4-3 1-5 5-4 10-5 9-3h4v-9l1-10 2 3 2 8v6l19-3 30-2-1-4h-2l1-5 2-6-6-6 1-5h3l6 4h3l-2 3 8 6-2-9-3-1z" fill="#1A2025"/>
<path transform="translate(859,339)" d="m0 0h2v21l-1 23-1 60-1 30-27-4-14-1h-25l-4 2h-4v-31l2-38 4-54h14l28-2 21-4z" fill="#DBB77C"/>
<path transform="translate(256,226)" d="m0 0h1v23l-17 6-9 6-1 5 1 1 4 48 2 20v12h-32l-21-5-20-8-7-5-1-39-3-41v-21l14 7 15 4 18 2h12l15-2 13-4 15-8z" fill="#DBB77C"/>
<path transform="translate(157,339)" d="m0 0 16 7 19 5 17 2h14l13-1 2-3 3 54 1 26v35l-1-3h-13l-27-3-16-5-13-7-3-3-5-2-1-15v-2l-3-31-2-25z" fill="#DBB77C"/>
<path transform="translate(768,219)" d="m0 0 7 6 14 7 16 4 7 1h31l19-3 10-2-1 14-4 31-3 28-2 26-6 4-18 6-11 2-36 2 1-19 7-60h2l-1-7-6-4-14-4-13-2-2-1 2-25z" fill="#DBB77C"/>
<path transform="translate(189,681)" d="m0 0 21 2 15 3 9 2-3 36v9l-1 5 5 5 16 3 11 1 1 14v13l-4-1v-2l-10-3-17-4-13-2-16-1h-11l-17 1-15 3-9 3 6-42 5-43z" fill="#DBB77C"/>
<path transform="translate(483,314)" d="m0 0h2l1 2v15l4 6 7 6 8 4 1-15 3 1 1 6v8l-1 4 3 1 1 1v-2l11-6-1-6 4 1 2 3-2-10-2-5v-7l4 1 2 2 3 20 4 10 1 7 6-7 2-12-1-2-2 5-4-1-1-2v-6l4-4 3 3v2l4 2 1 1 1 10-3 7-7 5 19-2 3-1-4-3 1-5 3-1 4-5-6 3-4 4-3-1-1-2v-8l-2-5v-7l4 1 2 4v11l-1 2 15-6 5-1-2 6-5 5-4 3 16 4v2l-16 3-25 3-5 3-2 3 13-2 6-4 5 1-1 4-1 2 9-1 1-1-2-1v-2l4-3h9v2l-3 2 7 1v3l-13 1-31 1-8 4-6 10 9-3 8-1 1-5 3-4 4 1 1 4-5 5h-3v2h10l10-4 11-8 7-2-6 8-2 3 1-1h10l-4 4-4 2h-8l-3-1-11 4-9-1h-14l-6 3-4 8v22l3 9 6 7 14 10-1 2-6-1-19-1v9l-2 1-5-8v-3l-8 1-4 7h-1l1-8-12 2-4 2h-3l2-4 12-8 4-5 5-12 1-5v-14l-4-9-5-5-4-1h-7l-14 8 1 1-2 5-10 6-4-1 4-7 9-6 14-8h2v-2h11l3 1-1-8-2-5-11-3h-18v2l10 5 3 4v4l2 2-9 2h-17l-10-8-5-6v-3l5 2 3 2v-2l3-1-5-4v-2l6-1-9-1-4-2v-2l20-2 2 2v4h-2v2l7 1-2-10-1-2 4-1h8l6 4 3 5v2l5 1h2l-10-12-12-2-7-4v-10l4-1 5 6-1 2-3-1 3 5 2 1 1-4 1 3h5l-5-12-7-10v-7l4 2 5 7v5l2 1-1-6h4l-1 14 1 5h2l2-9v-8l-3-5v-9z" fill="#1B2126"/>
<path transform="translate(958,396)" d="m0 0 4 1-1 13-3 10-6 12h-2l-1 4 10-6 11-4h8v2h-2l-1 4-7 7h-2l-2 4h-3l-1 3-12 9h-3l-1 3-8 6-8-1v-3l-1 2v9l-1 4 14-5 5-1h13l9 2 5 2-1 3-5 3-11 4-8 3-20 3-1 31 8-1h10l-2 4-2 2h-3v2h-3v2l-5 1v2h-2v129h-1l-1-127-12 2h-30l-14 5-9 7-1 18h20l18 4 9 5-3 2-6 1h-28l-11-2 2 66v10l-9-2 2-1 1-27-1-4 1-5v-44l-1-24-3-2 4-3 1-2-2-1 1-3 2-1v-3l-5-1 4-4h2l-1-6h2l1 25h2l2-4 13-17-1-7-1-6v-11l2-18 3-9 3 1 3 7 2 13v14h2l2-4 11-14 5-6 3-8h2l2-5 11-16 2-3 3 1 1-9 15-31 7-11z" fill="#B19A69"/>
<path transform="translate(494,733)" d="m0 0h47l36 2 39 3 7 1v9l6-1 1 1v8l-7 3h-2v11l-2 1-4-16-1-2-13-1 1 10v8l-3 1-2-15-10 1v11l-2 4h-3l1-7-1-10-7-1v20h-2l-3-13v-5l-12 1v18h-2l-1-5v-10l1-4-5-2-12 2-1 16-2 3h-3l1-4v-10l-4-4-4-2-1 3-1 2 1 9v5l-3 1v-14l-10-3-6-1v16l-1 3h-2v-19l-3-1-12 2-3 10-6 4-10 3-1 2h-2l1-22-3 5-2 1-1 3-3-1-3-8-4-1v10l-2 11h-2v-18l-8 2-1 9-6 5-11 4h-4v-2l5-2v-2l-4-2 2-2 3-9 3-1 1 4-3 5 9 1v-7l-2-3-11-2-2-2 1-7-6-2-2-3 5-2v-1l36-3z" fill="#DBB77C"/>
<path transform="translate(165,447)" d="m0 0 6 4v13l2 42v19l1 48 5 2 8 1 2 3 16 3 18 1 1 3-3 1h-15l-19-3-10-4-4-3-14 1h-30l-10-2-1-2 13-5 9-2h28l-1-12-12-11-9-7-8-2-22 1-19-2-13-8-6-5 3-2h17l-1-29-14-2-16-5-15-6v-4l7-3 5-1h16l13 4 4 2-2-7-10-7-2-3 5-2h4l4-4 4 4 13 19 8 12 13 16 3 5 2-22 3-11 3-5 2 2 3 17v26l-2 9 14 19 4 5v2h2l-3-81z" fill="#B19A69"/>
<path transform="translate(767,36)" d="m0 0h1l-1 10-4 15-5 10-9 10-10 7-12 4-15 1-22-3-69-16-30-5-30-3-18-1h-54l-36 3-42 6-35 7-36 9-31 8-6 1h-19l-12-3-9-5-10-9-10-14-2-5v-6l5-6 9-1 10 4 5 6 5 22 6 1h17l26-3 72-11 44-6 20-2 17-1h57l32 2 35 4 35 6 42 8 23 3h18l11-2 14-7 5-6 4-11 2-13 7-6z" fill="#282C2E"/>
<path transform="translate(947,831)" d="m0 0h2l2 10-1 16 1 73 2 20 7 9 1-3 6 9 4 4 10 2 16 1 4-1 16 1 7 1v51h-28l-4-13-2-3v-3l-4-1-8-9v-2l-5-1-3-9 1-4-4-2-7-5-4-1-4-6-24-6v-3h2v-2l-30-2 3-4h22l20 3-14-13-10-4v-3l-1-2 4 2 7 4h2l-5-14v-26l3-15 2-3v-14l-2-10 4-6 2 3 2 9 3 33v9h2v-54l2-14z" fill="#E5CDA8"/>
<path transform="translate(996,26)" d="m0 0 3 1-8 9-11 9-10 11-3 7-3 2-4 21-2 4h-3l-1-3h-2l-1 69-1 21-2 10h-3l-1-5v-13l2-9v-30l-1-7v-24l2-14v-7l-2 3-1 19-3 56-2 15-2 5h-3v-8l-1-3-2-1v-8h1l-1-11-3-23v-15l2-9-2-1h3l1-5-5 5-8 9-3 3h-3l-21 6h-8l4-5 5-2 19-3 4-2 4-5-10 4-10 2h-16l-12-5-8-6-1-2 6 2 5 2 6 1h15l6-1-20-1-5-3 2-1v-2h21l20-1 13-3h3l-3-1-11 2-25 1h-14l-29-1-13 4h-3l2-4 7-3 5-1 45-2 10-1h-27l-13-3-2-1v-2h26l8-1 31-1 12-3-10-2v-2l9-3 13-2 8-3 8-5 10-10 11-9z" fill="#DBB77C"/>
<path transform="translate(185,766)" d="m0 0h35l20 4 15 5 8 6 1 2v6l-4 5-13 5-13 4-20 3h-27l-18-3-12-5-6-5-1-2v-9l6-7 11-5 11-3z" fill="#F7EAD4"/>
<path transform="translate(25,27)" d="m0 0 7 4 3 2v2l4 2 16 15 9 8 8 7 9 1 2 2 7 1h12l27-2 24-4h5l-1 3-13 4-18 4-8 1h-16l-16-2-6-2 2 5 2 1v2l3-1h24l7 1h28l14-1h27v3h-8l1 5-12-2v-1l5-1-3-1h-13l-4 3-15 5-12 2-16 1 18 2h19l10-2v3l-6 3-12 2-18-1-14-3-4-2h-3l3 5-1 3-5-7-3-2 5 13 1 4v22l-3 12-2 1v-2h-2l-1-2v-40l-2-9-1-1 2 25-1 22-1 9v12l1 22-2-2-2-9-1-18v-33l-2-19-1 59-1 11-2 5-4-2v-11l1-10v-29l-1-23h-2l-4-8h-3l-4-4-1-16-3-12-11-12-7-7-9-7-6-6z" fill="#D5B178"/>
<path transform="translate(805,766)" d="m0 0h28l17 3 11 4 7 6 2 4v6l-4 6-10 5-18 4-10 1h-25l-20-3-13-4-5-4-2-5 1-9 6-5 12-5 14-3z" fill="#F6EAD4"/>
<path transform="translate(837,475)" d="m0 0h8l13 4v40h-2l1 6-5 3 5 1-1 5-3 3 3 1v3l-4 2 2 4 1 26v42l-1 4 1 9-1 18-1 3-10-1-6-2-1-4v-79l1-30v-17l2-1 1-4 1-2h-3l-1-2z" fill="#EFD896"/>
<path transform="translate(153,228)" d="m0 0 14 7 18 5-1 8 2 44v46l-1 2 2 1-9-1-14-6-7-5-1-39-3-41z" fill="#EFD896"/>
<path transform="translate(859,339)" d="m0 0h2v21l-1 23-1 60-1 30-18-3-5-2 1-36v-23l-1-18 1-17v-28l2-2 18-4z" fill="#EFD896"/>
<path transform="translate(802,199)" d="m0 0h11l17 2 25 6 14 6 6 6-1 7-5 4-15 4-11 1h-16l-24-2-16-4-12-6-5-6-1-7 5-6 16-4z" fill="#F7EBD5"/>
<path transform="translate(837,652)" d="m0 0 9 1 14 5 2 24 6 74v17l-17-7-9-2-1-2h2l-1-4-2-36-1-17-1-26-1-11z" fill="#EFD896"/>
<path transform="translate(85,831)" d="m0 0h2l2 5 1 9v65l-1 11h-2l-2 9-5 10 1 1 4-2 1-6 5-14 2-6v-8h-1v-9h1v-9l-1-11h2l6 10 1 5v15l-3 12-7 15 5-3 3-1 2-6 3-1-3 9h4v-2l10-3 1-2h8l10 2 2 2-2 1 13 4 1 4-12-1-22-2h-11l-9 3 22 1 2 2-21 2-9 2-6 2v2l-3 3 16-3h29l3 1v2l3 1-12 1-37 1-7 2-14 12-5 6-11 9-8 6-7 6h-2l2-5 7-7 14-11 10-10 3-12 2-17 2-5h5v19l3-8v-85l2-3h-3v-3h2v2h2l1-3 2 3v31l2 10 1-1 1-19z" fill="#DCB97F"/>
<path transform="translate(162,683)" d="m0 0h27v34l-1 27v14l2 2-15 2-15 3-9 3 6-42z" fill="#EFD896"/>
<path transform="translate(157,339)" d="m0 0 16 7 14 4 1 4v35l1 12v36l-10-1-8-2-2-3v-3l-2-1 3-1-7-2-3-31-2-25z" fill="#EFD896"/>
<path transform="translate(869,232)" d="m0 0h3l-1 14-4 31-3 28-2 26-6 4-12 4h-5l-1-5 1-13 1-17 1-4 1-21 2-13 2-16 1-10-6-1 2-2 19-3z" fill="#EFD896"/>
<path transform="translate(195,204)" d="m0 0h37l16 3 8 4 2 3-1 6-7 6-12 5-12 3-7 1h-25l-9-2-5-4v-6l6-5 9-3 5-1h21l17 3h4l-20-4-8-1h-14l-17 3-8 4-4 5-1 8-9-3-6-4-1-5 5-6 13-6 15-3z" fill="#F7EBD6"/>
<path transform="translate(947,831)" d="m0 0h2l2 10-1 16 1 73 2 20 7 9 1-3 6 9 23 23 2 4-1 3-17-17-11-9-11-12-6-3-5-1-41-1 3-4h22l20 3-14-13-10-4v-3l-1-2 4 2 7 4h2l-5-14v-26l3-15 2-3v-14l-2-10 4-6 2 3 2 9 3 33v9h2v-54l2-14z" fill="#DBB77C"/>
<path transform="translate(170,452)" d="m0 0 5 1 9 4 8 3-1 4v53l-1 33v20l-1 5h-12l-4-2-1-51v-16l-2-44z" fill="#EFD896"/>
<path transform="translate(362,533)" d="m0 0h7l9 3 6 5 5 9 1 6v8l-6 12-7 6-5 2h-14l-9-5-6-8-2-5-1-9 2-9 4-6 7-6z" fill="#1D2226"/>
<path transform="translate(483,314)" d="m0 0h2l1 2v15l4 6 7 6 8 4 1-15 3 1 1 6v8l-1 4 3 1 1 1v-2l11-6-1-6 4 1 2 3v3h2l5 12v6l-9 11-8 7-6 7h-1l-1-28-2 28-5-5-6-9-6-7-2-5-6-3-1 2-4-5-12-2-7-4v-10l4-1 5 6-1 2-3-1 3 5 2 1 1-4 1 3h5l-5-12-7-10v-7l4 2 5 7v5l2 1-1-6h4l-1 14 1 5h2l2-9v-8l-3-5v-9z" fill="#2C2C29"/>
<path transform="translate(96,452)" d="m0 0 4 4 13 19 3 4-1 2-3-4-5 2 2 4 5 5-2 2-4 2 2 5 5 5 15 10 7 6 8 10 2 4-5-2-8-3-25-5-9-1-2-1-1-30-14-2-16-5-15-6v-4l7-3 5-1h16l13 4 4 2-2-7-10-7-2-3 5-2h4z" fill="#B39B69"/>
<path transform="translate(723,928)" d="m0 0h9l14 4 11 6 12 11 9 12 2 11-6 4-8 1-8-4-12-20-4-5-9-4-5-1h-8l-14 3-26 9-18 6-10 2 4-4 14-9 18-12 14-6 13-3z" fill="#272B2E"/>
<path transform="translate(280,942)" d="m0 0h25l25 5 60 17 40 10 14 3v1l-13-1-29-5-28-6-42-10-25-4h-24l-8 3-3 5-2 11-2 15-3 3-2 1h-11l-5-3-2-3-1-10 4-12 6-8 11-7 10-4z" fill="#282B2D"/>
<path transform="translate(174,579)" d="m0 0 5 1 12 4-1 9v31l-2 17v35l-1 2h-16v-10l2-9h8l-9-3v-5l4-3h4v-2l-8 1-2-6 1-4h5v-2l-5-1-1-5 1-1-1-8 4-2-2-3 1-32z" fill="#EFD896"/>
<path transform="translate(767,36)" d="m0 0h1l-1 10-4 15-5 10-9 10-10 7-12 4-15 1-22-3-69-16-30-5-30-3-18-1v-1h6l-1-3 18 1 35 4 35 6 42 8 23 3h18l11-2 14-7 5-6 4-11 2-13 7-6z" fill="#282B2D"/>
<path transform="translate(958,396)" d="m0 0 4 1-1 13-3 10-6 12h-2l-1 4 10-6 11-4h8v2h-2l-1 4-7 7h-2l-2 4h-3l-1 3-12 9h-3l-1 3-8 6-8-1v-3l-4 7-6 2v-5l7-10 2-3 3 1 1-9 15-31 7-11z" fill="#B39B6A"/>
<path transform="translate(61,63)" d="m0 0 4 2 8 7 10 10v2l4 2 2 3 2 29-1 22-1 9v12l1 22-2-2-2-9-1-18v-33l-2-19-1 59-1 11-2 5-4-2v-11l1-10v-29l-1-23h-2l-4-8h-3l-4-4-1-16-1-7 2 1z" fill="#DAB67C"/>
<path transform="translate(165,447)" d="m0 0 6 4v13l2 42v19l1 48 5 2 8 1 2 3 16 3 18 1 1 3-3 1h-15l-19-3-10-4-4-3-14 1h-30l-10-2-1-2 13-5 9-2h28l-1-16v-27l-2-55z" fill="#DAB67C"/>
<path transform="translate(249,191)" d="m0 0h1l1 14 9 4 2 2 1 4 1 32h-1l-3-14-2 16h-1l-1-22-8 5-13 6-13 3-10 1h-12l-18-2-15-4-12-6-1-1v20l3 41v18h-2l-3-52-1-7 1-22h2l1-3 8 5 7 3v-8l5-6 8-4 17-3h14l24 4 7 2v1h-7l-17-3h-21l-12 3-6 4-1 1v6l4 3 9 2h25l15-3 12-4 8-5 3-5-1-5-9-5 1-2z" fill="#1C2125"/>
<path transform="translate(399,534)" d="m0 0h21l7 3 5 6v11l-4 6-5 3h-2l10 18 1 3h-8l-4-5-8-14-4-1v20h-9z" fill="#212628"/>
<path transform="translate(195,773)" d="m0 0h19l14 2 10 4 2 2-1 6-8 4-14 3h-30l-12-2-6-4-1-1v-5l7-6 8-2z" fill="#F6EAD4"/>
<path transform="translate(63,396)" d="m0 0 4 1 6 7 8 14 10 21 2 6v8l2 1h-2l-1 3h-6l-4 2-9-7-11-8-10-9-4-6v-3h7l12 5 7 4-8-16-3-9-1-12z" fill="#D9B67C"/>
<path transform="translate(932,91)" d="m0 0 1 2-3 5-1 9v15l3 23 1 5v7h-3l-5-5-2-1v-2l-4 1-6 1-2-4-2-1v-2h-2v-2l-5-1v-8l3-12 1-1 1-8-4 1v-2l13-4 1 1 6-8 7-8z" fill="#EEDBBD"/>
<path transform="translate(96,937)" d="m0 0h21l30 3h36l3 1 1 4-10 7-7 3h-8v-3l-11 1h-33v-1l9-1v-2h-32l-18 3 3-4h2v-2l9-4 13-2 12-1-20-1z" fill="#ECD9B9"/>
<path transform="translate(856,519)" d="m0 0h2v47h21l18 4 9 5-3 2-6 1h-28l-11-2 2 66v10l-9-2 2-1 1-27-1-4 1-5v-44l-1-24-3-2 4-3 1-2-2-1 1-3 2-1v-3l-5-1 4-4h2z" fill="#D9B67B"/>
<path transform="translate(626,532)" d="m0 0 3 2 9 20 12 27v3h-7l-3-4-3-7h-18l-4 1-4 9h-9l7-16 16-34z" fill="#1D2226"/>
<path transform="translate(926,231)" d="m0 0 12 1 7 1 13 1 7 5 3-2h5l1 4-4 4-16 9-20 12h-5l-1-1-1-12h-1l-1-20z" fill="#E5CDA8"/>
<path transform="translate(461,532)" d="m0 0 3 2 11 25 8 18 2 4v3h-8l-6-11h-20l-5 10h-8l3-9 13-28z" fill="#1D2225"/>
<path transform="translate(494,733)" d="m0 0h47l36 2 18 2v1l-31-1-32-2h-35l-25 1-20 2h-7l-3 1-11 1v5h-2v2l12 1 4-1 2-1 1 3 3 2 8-2v2h2l1 10-1 3-3-1-3-8-4-1v10l-2 11h-2v-18l-8 2-1 9-6 5-11 4h-4v-2l5-2v-2l-4-2 2-2 3-9 3-1 1 4-3 5 9 1v-7l-2-3-11-2-2-2 1-7-6-2-2-3 5-2v-1l36-3z" fill="#B09867"/>
<path transform="translate(87,80)" d="m0 0h24l7 1h28l14-1h27v3h-8l1 5-12-2v-1l5-1-3-1h-13l-4 3-15 5-12 2-16 1 18 2h19l10-2v3l-6 3-12 2-18-1-14-3-1-4-6-1-13-10z" fill="#D9B57B"/>
<path transform="translate(494,534)" d="m0 0h8v21h22v-21h8v50h-8v-22h-22v21h-8z" fill="#192025"/>
<path transform="translate(465,357)" d="m0 0h8l6 4 3 5v2l5 1 4 1v2l-6 1-3-1h-18v2l10 5 3 4v4l2 2-9 2h-17l-10-8-5-6v-3l5 2 3 2v-2l3-1-5-4v-2l6-1-9-1-4-2v-2l20-2 2 2v4h-2v2l7 1-2-10-1-2z" fill="#F3E5CC"/>
<path transform="translate(360,541)" d="m0 0h10l6 4 4 5 1 3v11l-3 6-7 6-9 1-8-4-3-4-2-6v-10l3-6 5-5z" fill="#F8ECD7"/>
<path transform="translate(153,228)" d="m0 0 12 6-2 2 1 16 1 23v6l1 2v49l-3 1-6-4-1-39-3-41z" fill="#DAB77C"/>
<path transform="translate(948,889)" d="m0 0h1l2 35 1 19 2 9 6 7 1-3 6 9 23 23 2 4-1 3-17-17-11-9-11-12-6-3-5-1-41-1 3-4h22l20 3-14-13-10-4v-3l-1-2 4 2 7 4h2l-5-14v-14l1-8 2 1v18l2 12h2l3 5v-5l2 2 2-4 3 12 2 5v-12l-2-19v-19z" fill="#A17C4D"/>
<path transform="translate(381,744)" d="m0 0h4l-1 8-1 1-1 14-1-2-30-3-8-2-19-1-13-2-2-2-3-2-4-2 20-2 38-2 1 9 2-1 1-8 2-1h8l1 4 3 1 1 6h1v-10l-1-2z" fill="#B19A69"/>
<path transform="translate(697,534)" d="m0 0h29v7l-1 1h-20v13h19v7h-19v14h21v8h-29z" fill="#1B2125"/>
<path transform="translate(924,489)" d="m0 0h2v31l-1 1-16 2-22 5-8 3-3-1 7-8 8-8 17-12 10-8z" fill="#262A2E"/>
<path transform="translate(97,490)" d="m0 0 5 2 13 10 15 10 7 6 8 10 2 4-5-2-8-3-25-5-9-1-2-1z" fill="#262A2E"/>
<path transform="translate(857,658)" d="m0 0h3l2 24 6 74v17l-9-4 1-9-1-9-2-37-1-7-1-8v-16l-1-5v-18z" fill="#D9B67B"/>
<path transform="translate(162,683)" d="m0 0h9l6 1v2l-7 1-1 14v11h-2l1 7-2 16-2 12v17l-11 4-2-1 6-41z" fill="#D9B67B"/>
<path transform="translate(885,932)" d="m0 0h12l21 4 6-2 8 4 7 6v1l-31-1-7-1h-19l-27 1-13 2h-8l-3-4 6-2 5-1 15-1h20l2-4z" fill="#DCB87D"/>
<path transform="translate(92,876)" d="m0 0h2l6 10 1 5v15l-3 12-7 15 5-3 3-1 2-6 3-1-3 9h4v-2l10-3 1-2h8l10 2 2 2-2 1 13 4 1 4-12-1-22-2h-11l-9 3 1 2-9 2 1-5-2 1 3-9 4-10 1-5v-8h-1v-9h1v-9z" fill="#DBB77C"/>
<path transform="translate(525,321)" d="m0 0 4 1 2 2 3 20 4 10 1 7 6-7 2-12-1-2-2 5-4-1-1-2v-6l4-4 3 3v2l4 2 1 1 1 10-3 7-7 5 19-2 3-1-4-3 1-5 3-1 4-5-6 3-4 4-3-1-1-2v-8l-2-5v-7l4 1 2 4v11l-1 2 15-6 5-1-2 6-5 5-4 3 16 4v2l-16 3-25 3-5 3-4 3-3 1 2-4 4-5v-6l-5-12-3-13-2-5z" fill="#2A2B2A"/>
<path transform="translate(869,232)" d="m0 0h3l-1 14-4 31-3 28-2 26-5 3-2-1 1-16v-7-3l-1-5-4-2 7-1 1-27 2-18-2-2 4-3 1-13-2-2z" fill="#DAB77C"/>
<path transform="translate(959,832)" d="m0 0 4 1 3 3v2h10l4 6 2 10 1 6 15 5 3 3 9 4 8 1 1 1-1 7-4 4-6-1v-7h-7l-5-3v-2l-4-2-8-3-8-5-3-2-1-4-5-2-6-6-2-8-2-2 1-4z" fill="#E6CEA9"/>
<path transform="translate(768,204)" d="m0 0h3l1 3-2 3 1 7 5 6 11 5 16 4 24 2h16l16-2 10-3 3-1 2 4-2 19-3 23-3 29-1 18-2 7h-1l1-23 6-53 3-20-15 4-14 2h-31l-20-4-12-5-9-6-2-2-1 2-2 22-1 3 2 1h-3v-2l-3 1v-9l3-23 3-6 3-5z" fill="#373127"/>
<path transform="translate(523,339)" d="m0 0 4 1 2 3v3h2l5 12v6l-9 11-8 7-6 7h-1v-34l1-4 11-6z" fill="#EADCC4"/>
<path transform="translate(859,339)" d="m0 0h2v21l-1 23-1 60-1 30-5-1 1-18v-44l-1-5v-26l1-10v-24l-1-4z" fill="#D9B67B"/>
<path transform="translate(140,567)" d="m0 0h28l-1 3v5h12l8 1 2 3 16 3 18 1 1 3-3 1h-15l-19-3-10-4-4-3-14 1h-30l-10-2-1-2 13-5z" fill="#B19A69"/>
<path transform="translate(885,425)" d="m0 0 4 2 8 9 8 15 3 11v17l-3 5-4-5-10-21-5-15-2-11v-6z" fill="#B19A68"/>
<path transform="translate(169,576)" d="m0 0 5 1 2 2h-2l-1 37 4 2-7 2 2 9h-2l1 5 5 1v2l-5 1v5l1 3h8v2l-7 3-1 3 2 1 7 3 3 2-11-1-1 11v9h-9l1-19 1-8v-3l2-35 1-37z" fill="#D9B57B"/>
<path transform="translate(136,426)" d="m0 0 4 1-1 13-5 16-9 19-5 9-3-4-1-14 3-14 4-10 8-11z" fill="#B19A69"/>
<path transform="translate(548,61)" d="m0 0 18 1 35 4 35 6 42 8 13 2v1h-14l-1 1 12 3 17 3h19l8-2h5l-3 2-7 2-15 1-22-3-69-16-30-5-30-3-18-1v-1h6z" fill="#342F26"/>
<path transform="translate(945,469)" d="m0 0h13l9 2 5 2-1 3-5 3-11 4-8 3-12 2h-13l-1 2-2-4 8-9 4-4z" fill="#D9B67B"/>
<path transform="translate(157,339)" d="m0 0 11 5-1 4 1 41v24l1 10-2 2-4-1-3-31-2-25z" fill="#D9B67B"/>
<path transform="translate(299,534)" d="m0 0h38l1 1v6l-15 1-1 42h-8v-43h-15z" fill="#181F26"/>
<path transform="translate(157,329)" d="m0 0 16 8 18 6 14 3h30l2 1v6l-14 1h-14l-22-3-17-5-12-6-1-1z" fill="#6D583D"/>
<path transform="translate(567,534)" d="m0 0h37v7l-15 1-1 42-8-1v-42h-13z" fill="#1E2224"/>
<path transform="translate(262,750)" d="m0 0 2 4 1 17 3-1v14l-3 7-3 3-2-1 3-4v-6l-5-5-8-4-18-5-12-2h-39v-3h-13v-2l7-1 17-1h11l23 2 20 4 13 5v2h3z" fill="#353026"/>
<path transform="translate(87,935)" d="m0 0 1 2-2 4 9-3h21l2 2-21 2-9 2-6 2v2l-3 3 16-3h29l3 1v2l3 1-12 1-37 1-7 2-14 12-5 6-11 9-8 6-7 6h-2l2-5 7-7 14-11 10-10 3-6 1 2 3-3 3-5 2 3 7-8 2-4 4-2z" fill="#A27D4E"/>
<path transform="translate(659,534)" d="m0 0h8v42h19l1 1v7h-28z" fill="#1E2327"/>
<path transform="translate(486,338)" d="m0 0 10 10 2 1v2l-8 1v7l11-8 5 2 3 5v31l-5-5-6-9-6-7-2-5-4-2-5-7v-2l5-2 1-6z" fill="#F3E5CC"/>
<path transform="translate(805,773)" d="m0 0h24l15 3 6 4 2 3-1 7-6 4-11 3-9 1h-14l-16-3-4-3 9 2 4 1h26l9-4 1-1v-5l-2-2-7-2-8-1h-11l-20 2 2-4 4-3z" fill="#272A2A"/>
<path transform="translate(554,745)" d="m0 0 3 1 12 1 3 1 2 9 1 17h-2l-3-13v-5l-12 1v18h-2l-1-5v-10l1-4-5-2-12 2-1 16-2 3h-3l1-4v-10l-4-4-4-2 1-7 11 2 7-3v-1h8z" fill="#AF9868"/>
<path transform="translate(249,191)" d="m0 0h1l1 14 9 4 2 2 1 4 1 32h-1l-3-14-2 16h-1l-1-22-8 5-13 6-13 3-10 1h-12l5-5h10v-2l23-5 12-5 6-5 1-6-4-4-6-3 1-2z" fill="#363027"/>
<path transform="translate(61,63)" d="m0 0 4 2 8 7 10 10 1 2v9l-3-1-3-7-1 17-2 4v-4h-2l-4-8h-3l-4-4-1-16-1-7 2 1z" fill="#ECD9B9"/>
<path transform="translate(568,373)" d="m0 0h8l1 2-8 4-10 7-8 3-10-1v-2l6-2 1-5-1-2-4 1-2 6-1 2-12 2-5 1 2-6 4-5 8-4z" fill="#F5E7CF"/>
<path transform="translate(466,810)" d="m0 0h2v3l16 1 3 5v10l-4 6-12 3h-5v-18l-3-3 2-5z" fill="#2E2921"/>
<path transform="translate(508,484)" d="m0 0h11l5 4 2 4v7l-4 6-4 2h-8l-6-4-2-5v-7z" fill="#242829"/>
<path transform="translate(610,484)" d="m0 0h10l5 4 2 3v9l-4 5-4 2h-8l-5-3-2-3v-11l5-5z" fill="#222628"/>
<path transform="translate(859,566)" d="m0 0h20l18 4 9 5-3 2-6 1h-28l-10-2z" fill="#B19A69"/>
<path transform="translate(713,788)" d="m0 0h18l3 6v10l-5 6-7 4h-3l-5-10-1-7-1-1v-7z" fill="#201E1B"/>
<path transform="translate(343,864)" d="m0 0 2 1v2l3 1v8l3 3v-10l5-5 3 6-1 4-4 1-1 7v4l6-2 3-10v-4l7-1 1 5-5 5-3 6-6 5v12l-3 2h-8l-1-1v-7l5-6-3-9-5-9-2-5z" fill="#332E26"/>
<path transform="translate(322,212)" d="m0 0 4 2 2 2-1 16 3 3v7h7v1h-29l4-1-1-4h-2l1-5 2-6-6-6 1-5h3l6 4h3l-2 3 8 6-2-9-3-1z" fill="#2B2821"/>
<path transform="translate(164,441)" d="m0 0 5 1 3 2v2l5 2 16 7 14 3 34 3v4l-6 1h-20l-20-4-17-6-11-7-2-5z" fill="#6F5A3D"/>
<path transform="translate(468,746)" d="m0 0h2v4l13 1 3 2 1 10-3 6-8 4-7 2-1 2h-2v-22l-1-3z" fill="#29251F"/>
<path transform="translate(479,638)" d="m0 0 9 1 5 5 1 2v8l-4 5-4 2h-8l-6-5-1-3v-7l3-5z" fill="#222424"/>
<path transform="translate(195,773)" d="m0 0h19l14 2 10 4 2 4-11-4-15-2h-16l-12 2-8 3 1 5 6 3 12 2h17l15-3 10-4-1 3-11 4-10 2h-30l-12-2-6-4-1-1v-5l7-6 8-2z" fill="#222629"/>
<path transform="translate(421,478)" d="m0 0 5 1 1 1v6l-2 3v10l1 3 6-11 4-8h4l-1 5-9 17-2 2h-4l-4-8-1-4-6 12-3-1-9-21v-1h5l5 13 1 1 6-16z" fill="#222628"/>
<path transform="translate(947,77)" d="m0 0h1v8l-2 14v24l1 7v30l-2 9-1 11-1-4-3-1v-2h-2l2-17 3-60 1-15z" fill="#EEDBBD"/>
<path transform="translate(934,519)" d="m0 0h10l-2 4-2 2h-3v2h-3v2l-5 1v2h-2v129h-1l-1-127h-5l-5-1-2-4-2-2 3-4 8-2z" fill="#BAA06D"/>
<path transform="translate(359,204)" d="m0 0h2v2l16-1 3 3v11l-7 8-5 4v8l1 3h-3l-2-9-2-20-4-2z" fill="#24211C"/>
<path transform="translate(899,918)" d="m0 0 11 2 8 5 4 4v2l1 2-5 1-23-6h-15l-10 3 2-4 10-6 8-2z" fill="#DCB87F"/>
<path transform="translate(153,65)" d="m0 0h5l-1 3-13 4-18 4-8 1h-16l-16-2-6-2-1 2-5-7h7l2 2 7 1h12l27-2z" fill="#D6B178"/>
<path transform="translate(637,967)" d="m0 0 4 1-16 5-12 3-18 3-36 4-25 1-6-1h-51l-27-3v-1h18l38 2h16l42-2 24-2 26-4 20-5z" fill="#E6CEA9"/>
<path transform="translate(467,371)" d="m0 0h15l11 4 4 8v6l-15-2v2l-5 2v-2l-5-1v-1h5l-3-7-7-4-4-2 1-2z" fill="#F2E5CC"/>
<path transform="translate(545,133)" d="m0 0 15 2 3 2 1 5-3 9-5 4-5 2h-3l-1 4h-3l1-8v-10l-1-8z" fill="#2A2925"/>
<path transform="translate(339,950)" d="m0 0 16 4 35 10 40 10 14 3v1l-13-1-29-5-28-6-17-4v-4l-12-4-5-1z" fill="#322E25"/>
<path transform="translate(96,937)" d="m0 0h21l30 3h36l3 1 1 4-10 7-7 3h-8v-2h2v-3l13-4 1-1-46-2-28-2v-1l12-1-20-1z" fill="#DCB87D"/>
<path transform="translate(103,922)" d="m0 0 1 2-3 5v2h4v-2l10-3 1-2h8l10 2 2 2-2 1 13 4 1 4-12-1-22-2h-11l-10 2-3 2 2-4 5-5h2l2-6z" fill="#DAB67B"/>
<path transform="translate(64,469)" d="m0 0h16l5 1 1 6 1 2-2 1-2 3h-3l-1 2-5-1-3-1-9-1-11-5 2-4z" fill="#D9B57B"/>
<path transform="translate(305,350)" d="m0 0 20 2 2 2 3 8 7 6 8 5 16 6 29 6v1l-13-1-23-5h-25l-10-3-6-3-1-2 28 3h4l-10-6-13-11-5-4-11-2z" fill="#D6B47B"/>
<path transform="translate(465,323)" d="m0 0 4 2 5 7v5l2 1-1-6h4l-1 14 1 5h2l3-12 3 1 1 5-2 5-5 2 4 6 1 2h-2l-1 2-4-5-12-2-7-4v-10l4-1 5 6-1 2-3-1 3 5 2 1 1-4 1 3h5l-5-12-7-10z" fill="#242524"/>
<path transform="translate(735,162)" d="m0 0h2l2 5 4 2 3-4h2l1 4 3 1v5h-2l-1 7-6 7-4 1h-8l1-5 3-7v-5l-3-4 1-5z" fill="#373127"/>
<path transform="translate(951,92)" d="m0 0 1 4-1 60-1 21-2 10h-3l-1-5v-13l2-9v-30l-1-7v-24l1-6h1v28l2 1 1-28z" fill="#DCB87D"/>
<path transform="translate(435,194)" d="m0 0 1 2h15l2 3v10l-3 6-7 9h-2l-3-15v-6l-4-1v-7z" fill="#23211C"/>
<path transform="translate(81,101)" d="m0 0h1v60l-1 11-2 5-4-2v-11l1-10v-45l2 4 2 6z" fill="#DCB87D"/>
<path transform="translate(789,211)" d="m0 0h18l17 3 16 5 6 2v1h-15l-22-2-16-3-6-3v-2z" fill="#1F2427"/>
<path transform="translate(421,745)" d="m0 0h2v3l10 1 4 1 1 6v12l-6 5-11 4h-4v-2l5-2v-2l-4-2 2-2 3-9 3-1 1 4-3 5 9 1v-7l-2-3-11-2-2-2 1-5z" fill="#2B261F"/>
<path transform="translate(806,761)" d="m0 0h17l19 2 15 4 11 6v3l-2 2-7-5-12-4-14-2h-35v-2l-10-1v-1z" fill="#302D26"/>
<path transform="translate(792,467)" d="m0 0h25l23 2 16 3 2 1v6l-18-4-13-2-12-1h-23l-7 1v-3z" fill="#705A3E"/>
<path transform="translate(342,798)" d="m0 0 8 5-2 4-2 1 3 9 3-3 2-4v-6l3-3h2l1 2 4 2-1 4-5 1-2 5-4 6v3l4 1-1 9-2 2h-3l1-3h2v-3h-11l1-3 4-1-5-13-3-9 1-4z" fill="#332E25"/>
<path transform="translate(861,331)" d="m0 0h1v15h-1v-7l-12 4-17 3-31 2-10-1 1-3 35-2 15-3 18-7z" fill="#705A3E"/>
<path transform="translate(590,197)" d="m0 0h3l1 4h2v8l2 6 5-4 1-4-3-3 1-4 1-2 3 1v2l6 2-2 4-6 9-5 5 1 1v5h-9l-6-2v-2l8-2-2-12-4-8z" fill="#262520"/>
<path transform="translate(800,644)" d="m0 0h23l20 3 15 4 2 1v6l-9-2-12-4-11-2-30-2v-3z" fill="#725B3E"/>
<path transform="translate(552,329)" d="m0 0 4 1 2 4v11l-1 2 15-6 5-1-2 6-5 5-4 3 16 4v2l-12 2-8-1 2-2-4-3 1-5 3-1 4-5-6 3-4 4-3-1-1-2v-8l-2-5z" fill="#2D2E2E"/>
<path transform="translate(660,146)" d="m0 0 4 2 12 2 3 5-1 8-5 4-3 1h-10v6l-2 3h-2v-8l4-11 1 4h9l3-1 1-4-15-2-1-1v-6z" fill="#2D2922"/>
<path transform="translate(413,739)" d="m0 0h6v1l-5 1v2l6 3-1 7 7 2 6 2 2 3v7l-1 1-10-1 3-6v-4l-7 3h-6v-12l-11-1-2-1v-5z" fill="#B09968"/>
<path transform="translate(465,357)" d="m0 0h8l6 4 3 5v2l5 1 4 1v2l-6 1-3-1h-15l-5 2h-5l-3-4 1-1 9 1-2-10-1-2z" fill="#262623"/>
<path transform="translate(596,742)" d="m0 0 2 1v2h19l4 15v10l-2 1-4-16-1-2-13-1 1 10v8l-3 1-1-10v-9l-4-1 1-8z" fill="#24211C"/>
<path transform="translate(531,483)" d="m0 0h3l8 15h2l8-14h2l1 11v12h-4l-1-11-5 9-4-1-5-7-1 10h-4z" fill="#2F2E2A"/>
<path transform="translate(310,793)" d="m0 0h2l1 4h2l-1 6 3 10 5-2 2-6-4-5 1-5h3l3 3 3 1-2 11-5 6-4 2-1 2h2v5l-6 7h-5v-4l6-1v-6-2l-7-19-1-4z" fill="#302C24"/>
<path transform="translate(497,876)" d="m0 0 2 2 15 1 5 3 2 9v11l-3 1-1-13-2-3-3-1-11-1 1 12 4 5-1 2h-9l2-6v-12l-4-3 1-4z" fill="#222322"/>
<path transform="translate(502,190)" d="m0 0h2l3 3 3 2v12l-4 8-5 4-7-10-3 9h-3l3-15-1-2h-4l-1-7 2-3 3 1v2l4 1 3 9 5 8v2l3-3 2-9-2-3-4-2z" fill="#24211D"/>
<path transform="translate(285,161)" d="m0 0h8l4 16v7l-4 3h-6l-1-5 2-2h3v2h4l-4-12v-2l-13 1 3 15v6h-2l-2-9-1-12h-3l1-6 1-1z" fill="#352F25"/>
<path transform="translate(81,519)" d="m0 0h17l1 2 11 2 1 6v4h-7l-2-3-3-1v2h-2v-2h-4l-1 2-11-7-3-4z" fill="#DAB67B"/>
<path transform="translate(573,134)" d="m0 0 5 5 1 2h-2l3 7 3 1 1-6-1-4 2-3 4 2 3 1-1 4-7 8v5l4 7-1 1h-5l-3-7v-3l-6 5-1 5-4 1 1-4 3-6 3-4-2-7-3-3 1-5z" fill="#252522"/>
<path transform="translate(945,469)" d="m0 0h13l9 2 5 2-1 3-5 3-11 4-5 1-2-4-4-5v-2l-3-2z" fill="#D7B47A"/>
<path transform="translate(25,27)" d="m0 0 7 4 3 2v2l4 2 16 15 9 8 11 9 5 6 3 5h-3l-13-13-5-3 1 5-3-2-3-6-9-10-8-8-9-7-6-6z" fill="#7D6342"/>
<path transform="translate(403,872)" d="m0 0 2 2 13 2 3 5 1 3v7l-3 5-4 3-13 2h-4l2-4 3-3h14v-10l-1-1-15-2v-7z" fill="#2D2922"/>
<path transform="translate(504,245)" d="m0 0 3 4 3 1-1 6 13 1v1h-41v-3h-7l-4-2v-7l3 1 11 1 2 1-2 8 10-1-4-5 2-5 4 2 2 5v4h7l-1-4h-4l1-5z" fill="#3D3528"/>
<path transform="translate(517,810)" d="m0 0h2l1 3 4 2v8l4 6v2l3-3 2-4v-5l-3-2 3-6 5 2 1 4-2 8-6 11-5 5h-2l-1-11-4-5-3-7-2-1 2-5z" fill="#2F2B24"/>
<path transform="translate(634,740)" d="m0 0h20v2h6l2 1-1 5-1 6 5 6-1 4-4-1-5-5-4 8h-2l2-10 1-4-4-4v-2l-5 1v-5l-9-1z" fill="#2C2720"/>
<path transform="translate(477,60)" d="m0 0h57l14 1 1 3h-70l-4-3z" fill="#2A2823"/>
<path transform="translate(649,206)" d="m0 0h2v2l11 2 3 2v13l-3 5-5 3h-11l-1-3 3-13 3 1-1 11 10-2 1-1 1-8-15-3v-7z" fill="#2E2A23"/>
<path transform="translate(559,639)" d="m0 0h13l4 4v6l-4 4-9 1v7h-4z" fill="#2B2B2A"/>
<path transform="translate(76,885)" d="m0 0h3v2h2v41l-2 11-3 4z" fill="#A27D4E"/>
<path transform="translate(110,476)" d="m0 0 3 1 6 7 3 7 2 6 2 2v4l-6-1-8-3-5-5 1-4 3-1 2-2-6-5-1-4z" fill="#DAB77C"/>
<path transform="translate(684,214)" d="m0 0 12 3 2 1v-2h2l5 5 1 3v12l-2 8h-1l-1-17-2-2h-4l-4 14-1 2h-4l2-6 2-5v-5l-9-4 1-6z" fill="#202222"/>
<path transform="translate(320,312)" d="m0 0 4 2 6 9 10 10 10 6 19 9 6 3-3 1-13-5-16-8-12-7-4-1v-2l-5-1-2-2h6v-2l-4-2-6-6v-3z" fill="#DAB983"/>
<path transform="translate(934,871)" d="m0 0h1v44h-1l-1-4 1 10 2 3 1 9h2l-1 4-3-4v-3h-2l-3-12v-18l-1 7h-1v-12l3-15 2-3z" fill="#E8D2B0"/>
<path transform="translate(649,798)" d="m0 0 1 2 7-1h11l2 7 3 11v6l-3 1-2-11-4-7h-10l2 4 1 16h-3l-2-18-4-1-1-5z" fill="#2D2922"/>
<path transform="translate(468,131)" d="m0 0 2 1 19 2 2 3v7l1 4v9l-2 1-3-18h-10l-1 18-3 1v-11l1-7-7-2-1-3z" fill="#2C2922"/>
<path transform="translate(438,374)" d="m0 0 5 2 5 6 10 5h10l2-1-5-5-2-3v-3l6 1 7 5 1 6 2 2-9 2h-17l-10-8-5-6z" fill="#212425"/>
<path transform="translate(258,794)" d="m0 0 2 1-4 3-2 37-5 68-3 27-1 2h-5l1-2h3l2-23 3-40 3-42 1-29z" fill="#3B3429"/>
<path transform="translate(555,747)" d="m0 0 17 2 1 1 2 16v8h-2l-3-13v-5l-12 1v18h-2l-1-5v-10l1-4-3-1 1-7z" fill="#1F1D1A"/>
<path transform="translate(341,145)" d="m0 0 1 2h16l2 3v10l-3 5-2 1 2 5 3 3 2 6-5-1-2 4h-3l1-5 1-4-3-4 1-5 4-1v-10l-15 1-1-8z" fill="#393328"/>
<path transform="translate(950,924)" d="m0 0 2 4 3 3h2v-3h2l1 2 3 29-2-1-1 2-7-8-2-9z" fill="#DBB77C"/>
<path transform="translate(581,639)" d="m0 0h13l3 3 1 5-3 5-1 1h-9v8h-4z" fill="#2A2926"/>
<path transform="translate(418,135)" d="m0 0h2v2h16l4 10v14h-2l-2-13-2-3-10-1 1 18h-4v-17l1-2-5 1z" fill="#25221D"/>
<path transform="translate(493,811)" d="m0 0 7 5v3l-4 1v8l-1 5 9-2 1-4v-7l-4-2 2-5h4l3 7-2 11-5 6-5 2h-7l1-3v-16l-2-3 1-4z" fill="#222423"/>
<path transform="translate(756,742)" d="m0 0h2l1 36 2 60 2 29 2 14v10h-1l-3-19-2-21-1-21-1-39-1-21z" fill="#393328"/>
<path transform="translate(689,857)" d="m0 0 3 2h13l1 1 2 12 3 7 1 9-2-2-3-9-4-5v-5l-12-1 3 9 5 7-1 4-5-5-4-6-1-16z" fill="#1A1F22"/>
<path transform="translate(460,61)" d="m0 0h15l10 1 4 3-36 3-19 2v-2h2l-1-2-3-2z" fill="#302F2A"/>
<path transform="translate(408,541)" d="m0 0h11l5 5v6l-5 5h-11l-1-6v-9z" fill="#F4E7CF"/>
<path transform="translate(334,208)" d="m0 0 1 2 17-1 4 6 2 9v5h-2l-2-8-1-5-8 1 3 8v7l-3 3h-2v-14l-1-4h-9l-1-5z" fill="#383126"/>
<path transform="translate(715,156)" d="m0 0 2 3 10 3 1 1v10l-2 12-2 5h-3l1-7 2-9v-4l-10-4v8h-2l-2 9h-3l1-5 3-7-1-10z" fill="#312C23"/>
<path transform="translate(919,952)" d="m0 0h22l9 3 8 7 2 4-30-6-2-1v-3h2v-2l-11-1z" fill="#DCB87D"/>
<path transform="translate(67,928)" d="m0 0h5v19l3-8h1l2 9-7 6-1-3-4 7-5 1 2-9 2-17z" fill="#DDBA81"/>
<path transform="translate(625,801)" d="m0 0 3 2 12 1 3 2 1 20-3 2-1-1-1-15-11-1 1 2 2 16h-4l-1-6 1-12-4-1 1-7z" fill="#2D2922"/>
<path transform="translate(377,139)" d="m0 0 5 3-1 6-2 6v6l1 7-4-2-5-7-2 11-4 1 2-10v-9l-4-3 1-5 1-2 3 1v2l4 1-1 4 4 6 1-2v-6l-1-4z" fill="#24221D"/>
<path transform="translate(503,748)" d="m0 0h2v2l14 1 3 1 3 12v10l-3 1v-14l-10-3-6-1v16l-1 3h-2v-19l-2-2 1-5z" fill="#22201C"/>
<path transform="translate(323,149)" d="m0 0 4 2 3 3v8l-3 8-7 8-4 1-2-16-5-6 1-5h4v2l4 2 1 15 4-2 2-4v-8l-3-2z" fill="#332E25"/>
<path transform="translate(546,810)" d="m0 0h2v2h15l3 3 1 6v15h-2l-2-13-1-4h-13l1 18h-3v-9l-1-5 1-4-3-3z" fill="#2F2B24"/>
<path transform="translate(163,679)" d="m0 0h40l19 2 11 3v5l-17-4-26-3-15 1h-12v-1h7v-2h-7z" fill="#A27D4E"/>
<path transform="translate(552,183)" d="m0 0 5 1 1 1v9l11 3v3l-4 6-3 16-2 2-1-1v-11l2-6v-4l-9-1v-6l1-1 1-7h-5v-3z" fill="#302C24"/>
<path transform="translate(61,63)" d="m0 0 4 2 5 5v8h2v14l-3-1-1 2-5-2-1-1-1-16-1-7 2 1z" fill="#D7B47B"/>
<path transform="translate(90,875)" d="m0 0 3 1 1 11v11 3 12l-4 13-5 13h-2l-1 3-3 2 1-7 5-9 2-7h2z" fill="#E5CCA6"/>
<path transform="translate(437,810)" d="m0 0h2l2 3 4 1-2 5 1 7 6-1 3-7h-5l-1-5 1-3h3v3h6l1 4-4 9-9 8h-3l-5-14-2-4 1-5z" fill="#2D2921"/>
<path transform="translate(674,794)" d="m0 0h2v2l4-1h12l4 10 1 3v9h-2l-4-13-1-1-10-1 1 21h-2l-1-2-1-15 1-4h-4z" fill="#383126"/>
<path transform="translate(96,452)" d="m0 0 4 4 13 19 3 4-1 2-3-4-4 1-5-9-5-6-2-1 1 7-11-7-3-4 5-2h4z" fill="#B69D6B"/>
<path transform="translate(168,575)" d="m0 0h11l8 1 2 3 16 3 18 1 1 3-3 1h-15l-19-3-10-4-4-3h-7z" fill="#9D7A4C"/>
<path transform="translate(517,191)" d="m0 0 5 1 2 6 1 8h4l1-7-2-1 2-5 2-2 5 5-1 5-2 1-3 7-6 5h-2l-2 5-1 2h-2l2-9 1-6-6-12z" fill="#272521"/>
<path transform="translate(664,861)" d="m0 0h2l1 2 15-1 3 3v8l1 4-3-1-2-7-12 1v13l3 1v5l-5 1-1-4 1-15h-4v-8z" fill="#312C23"/>
<path transform="translate(577,374)" d="m0 0 2 1-9 10 2-1h10l-4 4-4 2h-8l-3-1-11 4-9-1 3-3 11-3 11-7 6-4z" fill="#272928"/>
<path transform="translate(547,875)" d="m0 0h2l1 2 15 1 3 3 1 5 3-1 1 17-5 4 1-8 2-6h-2l-3-9-5 1-3-1v11h-2l-1-8-9-1-1-1v-5z" fill="#393226"/>
<path transform="translate(622,628)" d="m0 0 12 1 26 6 28 8 22 5v1l-5 1h-10l-16-5-30-10-27-6z" fill="#DAB77C"/>
<path transform="translate(154,224)" d="m0 0 16 8v-8h1v11l-4 1-12-6-1-1v20l3 41v18h-2l-3-52-1-7 1-22h2z" fill="#3B3529"/>
<path transform="translate(286,787)" d="m0 0h2v3l9 1 7 3v5l-5 5-9 1-2 10-3 1 1-10 3-7 10 1-14-4-1-1 1-7z" fill="#2A261F"/>
<path transform="translate(443,876)" d="m0 0 3 1 4 6 1 10 5-2-1-7-2-2 1-5 3-1 1 3 3 2-1 9-4 6-5 4-9 2 2-4 2-1v-8l-4-6-1-5z" fill="#363026"/>
<path transform="translate(511,487)" d="m0 0h6l5 5-1 9-5 3-6-1-4-5v-6z" fill="#F5E8D0"/>
<path transform="translate(612,487)" d="m0 0h6l5 5v7l-4 4-6 1-5-4-1-7 3-5z" fill="#F4E8D0"/>
<path transform="translate(858,576)" d="m0 0 11 1 30 1-4 2-12 1-22-2v87h-1l-1-24-1-41z" fill="#3B3429"/>
<path transform="translate(595,737)" d="m0 0 21 1 7 1v9l6-1 1 1v8l-9 4h-1l-3-11v-4h-19l-1-3 9 1h13l2-3-6 1-5-1-15-1z" fill="#B19A68"/>
<path transform="translate(958,396)" d="m0 0 4 1-1 13-2 7h-2l-3 3h-4l-2-8 4-10z" fill="#D8B57B"/>
<path transform="translate(852,153)" d="m0 0h4l-1 4-13 11-7 5-7 4-7 7-2-3 9-10 8-7 10-7z" fill="#353026"/>
<path transform="translate(506,638)" d="m0 0h7l5 3-1 2-10-1-4 4v7l4 4h8v-6h-5v-2h9v10l-5 2h-9l-6-5-1-2v-9l4-5z" fill="#2A2B2A"/>
<path transform="translate(568,365)" d="m0 0h9v2l-3 2 7 1v3l-13 1-31 1-4 1 1-4 13-2 6-4 5 1-1 4-1 2 9-1 1-1-2-1v-2z" fill="#232524"/>
<path transform="translate(104,111)" d="m0 0 5 5 6 10 4 14 1 5-5-2-7-8-3-15z" fill="#DBB77C"/>
<path transform="translate(69,954)" d="m0 0v3l-1 4-12 11-4 5-15 11-8 7h-2l2-5 7-7 14-11 10-10 3-6 1 2z" fill="#786041"/>
<path transform="translate(293,856)" d="m0 0h2v3l9 2 2 1-1 16-3 6-1 1h-13l1-4h11l2-12-10-3-2-1 1-6z" fill="#302C24"/>
<path transform="translate(543,638)" d="m0 0h2l9 20 1 3h-4l-3-5h-9l-3 4-4 1 2-6z" fill="#242728"/>
<path transform="translate(97,490)" d="m0 0 5 2 13 10 15 10 7 6 8 10 2 4-5-2-8-3-9-2 2-2 3-1 2-4-1-3-4-2-11-7-13-9v-2l-5-1-1 2z" fill="#322E25"/>
<path transform="translate(805,847)" d="m0 0 4 1 8 13 5 10 3 9 4 8-1 2-1-3-4-2-15-27-3-7z" fill="#3E362A"/>
<path transform="translate(481,641)" d="m0 0 6 1 3 4v7l-5 5-7-1-3-4v-7l3-4z" fill="#F4E7CF"/>
<path transform="translate(360,645)" d="m0 0 3 1-23 11-14 9-10 9-5 6-5 2 2-4 10-10-15 8-3 1-3-5 15-4 14-7 18-10 12-6z" fill="#D2B27B"/>
<path transform="translate(996,26)" d="m0 0 3 1-8 9-11 9-13 14-5 5-5 3 1-5 14-15 7-7 11-9z" fill="#A07B4D"/>
<path transform="translate(241,229)" d="m0 0h4v3l-15 6-3 2-15 2h-12l5-5h10v-2l23-5z" fill="#2D2F2E"/>
<path transform="translate(446,746)" d="m0 0 5 5 8-2v2h2l1 10-1 3-3-1-3-8-4-1v10l-2 11h-2v-19l-4-1-1-5z" fill="#312B22"/>
<path transform="translate(468,876)" d="m0 0h2l1 2 3 1 12 1 2 2v18l-2 4h-1l-1-16-2-1-15-1-1-6z" fill="#212222"/>
<path transform="translate(919,97)" d="m0 0 2 1-5 6-8 3-15 2-8 4-1-2-3 3v-3l2-6-5-2-2-2 7 1 4 1h13l16-4z" fill="#E5CDA5"/>
<path transform="translate(764,943)" d="m0 0 8 5h3l5 6 3 2v12l-2 9-3 3-7-2-2-2 9-3 1-3-2-9-10-13-3-3z" fill="#EAD7B8"/>
<path transform="translate(853,478)" d="m0 0 5 1v39h-8l-6-1v-1l8-1 1-9z" fill="#DBB77C"/>
<path transform="translate(98,947)" d="m0 0h47l8 1 3 2-1 3h-37v-1l9-1v-2h-18l-11-1z" fill="#DCB87D"/>
<path transform="translate(79,847)" d="m0 0 2 3v36l-5-1-1-31 2-3h-3v-3h2v2h2z" fill="#DBB77C"/>
<path transform="translate(397,805)" d="m0 0 5 3 10 2 3 2v14l-1 10-2 5h-2l1-11v-13l-15-3-1-3z" fill="#202324"/>
<path transform="translate(615,870)" d="m0 0 1 2 17-1 3 5 2 9v9l-2 1-2-10-2-7-18 1-1-6z" fill="#232422"/>
<path transform="translate(639,866)" d="m0 0h2v2h16l2 8v14l-4 4v-14l-1-5h-14l-1-1z" fill="#2D2A23"/>
<path transform="translate(915,111)" d="m0 0 1 2-3 17-6 8-5 3v-8l3-9 8-11z" fill="#DCB87D"/>
<path transform="translate(496,745)" d="m0 0 8 1-3 9-5 2-8 1-2-1v-4l-3-1-11-1-2-1 1-4 1 2 14 2z" fill="#AE9767"/>
<path transform="translate(884,898)" d="m0 0 6 1 11 6 9 8 1 3-8-1-10-4-8-9z" fill="#DCB87D"/>
<path transform="translate(723,312)" d="m0 0 2 1-9 8-9 5-14 7-19 10-25 10-3-1 16-7 13-6 12-6 9-8 2 1 4-1 6-1v-2l13-8z" fill="#B69563"/>
<path transform="translate(593,805)" d="m0 0 2 1v2h12l3 3 1 6v16h-2l-1-2-2-15-14-1v-9z" fill="#352F25"/>
<path transform="translate(929,899)" d="m0 0 2 1v18l2 12h2l3 5v-5l2 2 2-4 3 12 2 5 2-3 1 9-4-2-14-14-1-6-3-8v-14z" fill="#D9B57C"/>
<path transform="translate(602,136)" d="m0 0 2 1v2l14 2 2 3-2 3h-10l-3 14-2 3h-2l2-8v-9l-3-3 1-7z" fill="#292721"/>
<path transform="translate(153,65)" d="m0 0h5l-1 3-13 4-18 4h-7l3-2h2v-2l-13 1-1-2 26-3z" fill="#DCB87D"/>
<path transform="translate(165,435)" d="m0 0 10 2 14 3-2 12-6-1-8-5-1-3-2-3 5 1-1-2-9-3z" fill="#EED795"/>
<path transform="translate(902,879)" d="m0 0 6 4 4 5 3 10 1 14-3-3-10-21z" fill="#DBB77C"/>
<path transform="translate(632,140)" d="m0 0h2v3l10 1 4 2v19l-2 4h-2v-18l-9-1-6-2 2-6z" fill="#2A261F"/>
<path transform="translate(485,484)" d="m0 0h10l2 1v3h-10l-4 1v10l3 3 5 1 7-1v3l-5 2h-8l-4-2-4-8 2-9z" fill="#252725"/>
<path transform="translate(445,484)" d="m0 0h13v3h-9v7h8l-1 3h-7v6h9v4h-13z" fill="#332F28"/>
<path transform="translate(229,346)" d="m0 0h6l2 1v6l-14 1h-14l-3-2h-2v-2l4-1h4l-3-2z" fill="#A27D4E"/>
<path transform="translate(170,153)" d="m0 0 9 6 5 2 11 9 8 8v4l-5-1-14-12-1-3-11-9z" fill="#312D25"/>
<path transform="translate(573,874)" d="m0 0 2 1 17 1 1 8-1 15-2 2-2-19h-15l-1 2v-8z" fill="#192025"/>
<path transform="translate(432,639)" d="m0 0h9v2h-5v7h5v2h-5v8l7-2-1-6 5 1 1 6-3 3-2 1h-11z" fill="#242728"/>
<path transform="translate(110,104)" d="m0 0h14l9 4 6 5v2l-16-2-10-5z" fill="#DCB87D"/>
<path transform="translate(399,742)" d="m0 0 1 4 13 2v15l-2 6h-3l1-15h-7l-5-3v-6z" fill="#29251F"/>
<path transform="translate(382,869)" d="m0 0 2 1v2l9 1 4 2v13l2 5-2 3h-3l-1-2-1-14-11-2-1-2z" fill="#20211F"/>
<path transform="translate(679,372)" d="m0 0 5 2-3 2 29 1 3 2-44 1-25 6h-5l4-2 30-9z" fill="#D9B881"/>
<path transform="translate(413,196)" d="m0 0 1 2h15l2 14v11h-2l-3-18h-13l-1-1z" fill="#212221"/>
<path transform="translate(386,744)" d="m0 0 7 3 2 5-1 21-1 2h-2v-20l-3-3-2-1-1 15-3 1v-14l2-5h2z" fill="#2C2720"/>
<path transform="translate(482,387)" d="m0 0h11v3l-4 1h-7l-14 8 1 1-2 5-10 6-4-1 4-7 9-6 14-8h2z" fill="#2F302F"/>
<path transform="translate(445,132)" d="m0 0 1 2 14 1 2 14v10h-2l-1-2-2-13-1-2-12-1-1-4z" fill="#211F1B"/>
<path transform="translate(114,918)" d="m0 0h16l14 4 6 4 3 4-10-3-14-4-22-2 2-2z" fill="#DBB77C"/>
<path transform="translate(469,820)" d="m0 0h13l1 1v9l-2 2h-12z" fill="#D8B883"/>
<path transform="translate(571,808)" d="m0 0h2v2l12 1 3 13-1 12-3-1-1-13-1-5h-11l-1-1v-6z" fill="#24221D"/>
<path transform="translate(725,794)" d="m0 0 5 1 1 7-4 5-2 1h-6l-3-8v-5z" fill="#D3B178"/>
<path transform="translate(560,484)" d="m0 0h12v3h-9v6h7v4h-7v6h9v4h-12z" fill="#222526"/>
<path transform="translate(395,138)" d="m0 0 18 1-2 6-4 8-3 12-2 1v-8l3-10 1-2-10-1z" fill="#2B2821"/>
<path transform="translate(670,650)" d="m0 0 6 1 8 4 7 3 9 6 15 6 4 4v2l-5-1-11-6 4 7-1 2-8-11-17-11-11-5z" fill="#DAB77D"/>
<path transform="translate(240,97)" d="m0 0h3l4 35 2 33v14h-2l-1-23-3-36-2-21-5 1-2-2z" fill="#3B3429"/>
<path transform="translate(947,77)" d="m0 0h1v8l-2 14v24l1 7v8l-3-3 1-5h-3v-11l1-26 1-12z" fill="#E7CFA6"/>
<path transform="translate(200,211)" d="m0 0h14l24 4 7 2v1h-7l-17-3h-21l-12 3-3 1-1-3-4-1 12-3z" fill="#3C372D"/>
<path transform="translate(510,130)" d="m0 0 13 3 1 1v14l-2 8-2 1v-18h-7l-4-1v-7z" fill="#353027"/>
<path transform="translate(960,956)" d="m0 0 3 3 4 6 23 23 2 4-1 3-17-17-3-2-2-6-4-2-6-6v-2h2z" fill="#796040"/>
<path transform="translate(436,483)" d="m0 0h4l-1 5-9 17-2 2h-4l-4-8-1-6 4-2 3 11 6-11z" fill="#2D2E2D"/>
<path transform="translate(86,901)" d="m0 0h2v20l-4 11-4 8-1 7-3-2 3-9 2-17 3-3 1-12z" fill="#DBB87E"/>
<path transform="translate(117,879)" d="m0 0h2l-3 10-8 15-2 6h-1v-12l3-11 5-6z" fill="#DCB87D"/>
<path transform="translate(783,764)" d="m0 0h11l4 1v2l-16 4-12 5-5 2 6-10z" fill="#222627"/>
<path transform="translate(627,740)" d="m0 0 17 1v5h4l2 5-4 1-9 1-2 1-2-7-5-5z" fill="#B09968"/>
<path transform="translate(646,214)" d="m0 0 12 2 4 2v8l-5 3h-7v-11h-3z" fill="#DAB880"/>
<path transform="translate(711,853)" d="m0 0 2 2h11v6h-2l2 7v5l-3 3h-2l-1 3-1-2 2-5 1-10-2 1h-6l-2-2v-7z" fill="#25231E"/>
<path transform="translate(879,497)" d="m0 0 1 3 3-3h2v12l-3 6-2 3h-3l-1-6v-13z" fill="#DAB77C"/>
<path transform="translate(378,803)" d="m0 0h2v3l10 2 1 1v6l-3 3-6 13h-2l2-9 4-8-6-1-3-2z" fill="#272622"/>
<path transform="translate(942,901)" d="m0 0h2l1 12 1 1 2 19v13l-3-3-2-5v-17h-1z" fill="#E1C495"/>
<path transform="translate(441,639)" d="m0 0 4 1 2 2-1 6h-2v2h-2l2 6-4 2h-4v-8h5v-2h-5v-7h5z" fill="#33322D"/>
<path transform="translate(765,215)" d="m0 0 3 1-2 29-1 3 2 1h-3v-2l-3 1v-9l3-23z" fill="#353027"/>
<path transform="translate(735,162)" d="m0 0h2l2 5 4 2 3-4h2l1 6h2l-1 3-5-1-3-1-5 10h-2v-9l-3-4 1-5z" fill="#342F25"/>
<path transform="translate(394,742)" d="m0 0h4v9l4 2 6 1v6l-12 1 1-7h-2l-3-7-3-1-1-3z" fill="#B09968"/>
<path transform="translate(167,596)" d="m0 0h1v18l-2 35 2 2-2 1-2 22-2 2v-13l2-28 1-23 1-1z" fill="#3B3429"/>
<path transform="translate(70,61)" d="m0 0h15l12 2 2 2-4 3-17-1-7-4z" fill="#DCB87D"/>
<path transform="translate(523,354)" d="m0 0 6 1 2 2v7h-4l-4-4h-3l1 9-4 1-2-1-1-7 5-5z" fill="#252625"/>
<path transform="translate(903,948)" d="m0 0h22l19 3 1 2-45-1z" fill="#A27D4E"/>
<path transform="translate(698,152)" d="m0 0 7 6-2 5-1 12-3 5h-5v-4l4-5v-10l-2-2v-5z" fill="#26241E"/>
<path transform="translate(922,108)" d="m0 0h1l3 26v8h-2l-4-10-1-5v-10l2-8z" fill="#DBB77C"/>
<path transform="translate(584,484)" d="m0 0h18v3h-7v20h-4v-20h-7z" fill="#2A2B29"/>
<path transform="translate(926,878)" d="m0 0h2l-1 8-3 14-1 12-2-1-2-9v-10l4-9z" fill="#D9B57A"/>
<path transform="translate(626,548)" d="m0 0 3 4 5 13h-15l3-9z" fill="#F6E9D2"/>
<path transform="translate(131,904)" d="m0 0 5 1-4 4-10 5-11 1 2-4 8-5z" fill="#DCB87D"/>
<path transform="translate(585,136)" d="m0 0 4 2 3 1-1 4-7 8v5l4 7-1 1h-5l-3-7v-3l2-1-1-4h3l1-6-1-4z" fill="#27241E"/>
<path transform="translate(932,82)" d="m0 0h3v2l-16 4-20 1h-15l1-2 9-1 2-1 25-1z" fill="#E6CEA9"/>
<path transform="translate(75,887)" d="m0 0h1v52l-3 8-2 1 1-20h-5l2-1v-2h2l2-2 2 1z" fill="#E4CAA1"/>
<path transform="translate(578,745)" d="m0 0h2v2l7 2 1 4h-2l1 7v8l-2 4h-3l1-7-2-10-4-3z" fill="#2C2820"/>
<path transform="translate(527,748)" d="m0 0 3 2 7 2 1 4v16l-2 3h-3l1-4v-10l-4-4-4-2z" fill="#211F1B"/>
<path transform="translate(460,549)" d="m0 0h2l7 16h-15l3-9z" fill="#F5E8D0"/>
<path transform="translate(936,96)" d="m0 0h1v55l-2-1-2-22v-14z" fill="#EDD8AB"/>
<path transform="translate(78,84)" d="m0 0 2 4 1 5v28l-2-2-3-10 1-24z" fill="#A27D4E"/>
<path transform="translate(487,191)" d="m0 0 3 1v2l4 1 3 10-3 3-2 9-4 1 3-15-1-2h-4l-1-7z" fill="#2F2B23"/>
<path transform="translate(663,743)" d="m0 0 16 1 5 1v5l-3-2-11-1-4 3h-2l-1 6 2 4-5-4-1-6z" fill="#B29A69"/>
<path transform="translate(970,426)" d="m0 0h8v2h-2l-1 4-4 4-11 2-4-2 1-2h6l2-5z" fill="#D5B379"/>
<path transform="translate(469,757)" d="m0 0 13 1 1 1-1 7-3 1h-10z" fill="#B19A69"/>
<path transform="translate(395,628)" d="m0 0 3 1-16 4-30 10-20 8-7 1 3-2 25-10 16-6 20-5z" fill="#D0B078"/>
<path transform="translate(465,357)" d="m0 0h8l2 1v2h-8l2 9 1 2-8 3h-5l-3-4 1-1 9 1-2-10-1-2z" fill="#23221E"/>
<path transform="translate(274,163)" d="m0 0h13l-1 3 4 1-8 2h-4l3 15v6h-2l-2-9-1-12h-3z" fill="#1E2121"/>
<path transform="translate(421,745)" d="m0 0h2v3l10 1 3 2-1 6-2-1-13-1-2-2 1-5z" fill="#24211C"/>
<path transform="translate(463,483)" d="m0 0h4v21h8v3h-12z" fill="#2F2B24"/>
<path transform="translate(163,442)" d="m0 0h2l3 6h-2v21l1 22v12h-2l-2-35z" fill="#363027"/>
<path transform="translate(633,202)" d="m0 0 2 1 3 3 3 2v14l-5 8-1-3 2-5v-8l-7-5 1-5z" fill="#292721"/>
<path transform="translate(394,198)" d="m0 0 1 2h12l2 4v10h-2l-2-7h-11l-1-7z" fill="#2B2720"/>
<path transform="translate(733,794)" d="m0 0h1v10l-5 6-7 4h-3l-5-10 1-8 2 4 2 6v2l8-2 5-5z" fill="#2D2821"/>
<path transform="translate(559,639)" d="m0 0h10v2h-6v10h7v2l-7 1v7h-4z" fill="#212526"/>
<path transform="translate(312,859)" d="m0 0h2l2 4 4 3v9l-2 11-2 1v-15l-5-4-2-5z" fill="#302C23"/>
<path transform="translate(616,738)" d="m0 0 16 1-4 2 5 4 1 2v6l-3 3h-1l-1-8-6 1-1-1v-7l1-2h-7z" fill="#342E24"/>
<path transform="translate(453,639)" d="m0 0h4v18l10 1-1 3h-13z" fill="#202527"/>
<path transform="translate(372,211)" d="m0 0 5 1 1 1v5l-5 4-6 2-2-11z" fill="#D7B67F"/>
<path transform="translate(722,161)" d="m0 0 6 2v10l-2 12-2 5h-3l1-7 2-9v-4l-3-2-2-3z" fill="#2F2B23"/>
<path transform="translate(167,425)" d="m0 0 6 1-4 2 3 6v2h-6l9 3v2h-4l3 1-2 4-3-3-5-2-1-15z" fill="#D5B178"/>
<path transform="translate(648,217)" d="m0 0 3 1-1 11 10-2 2-3 1-7h1v11l-5 4-2 1h-11l-1-3z" fill="#22201C"/>
<path transform="translate(564,350)" d="m0 0 3 1-1 3 16 4v2l-12 2-8-1 2-2-4-3 1-5z" fill="#272928"/>
<path transform="translate(87,935)" d="m0 0 1 2-2 4 9-3h21l2 2-21 2-9 2-6 1-2-1 1-3 4-2z" fill="#A27E4F"/>
<path transform="translate(466,810)" d="m0 0h2v3l16 1v3l-6-1v3h5v1h-17l-3-3 2-5z" fill="#1A1D1F"/>
<path transform="translate(422,808)" d="m0 0h2l5 5 1 5 1 12-2 6h-2v-12l-1-6-5-2-2-1 1-4z" fill="#272623"/>
<path transform="translate(295,113)" d="m0 0h2v5h7l-4 4-2 1v7l2 5 1 1h7l-1 2-6 1-5-3-2-4-1-7v-9z" fill="#8B6D47"/>
<path transform="translate(547,141)" d="m0 0h10l2 1-1 7-6 4-4 1z" fill="#DAB981"/>
<path transform="translate(893,947)" d="m0 0h29v1l-19 1v2l6 1v1h-24l-1-2 5-3z" fill="#DCB87D"/>
<path transform="translate(689,857)" d="m0 0 3 2h13v2h-14l1 8 2 6 5 7-1 4-5-5-4-6-1-16z" fill="#383126"/>
<path transform="translate(342,798)" d="m0 0 8 5-2 4-2 1 2 10-1 2h-2l-5-13-1-6z" fill="#2F2C24"/>
<path transform="translate(427,740)" d="m0 0 4 1v4h-2v2l12 1 2 2 1 5 3 2-8 2-2-3v-6l-9-1-5-1v-5l4-1z" fill="#B19968"/>
<path transform="translate(548,135)" d="m0 0h12l3 2 1 5-3 9-4 2 1-6 1-5-11-2v-1h5v-3h-5z" fill="#221F1B"/>
<path transform="translate(305,350)" d="m0 0 20 2 2 2 3 8 6 7-5-2-10-9-5-4-11-2z" fill="#D7B57D"/>
<path transform="translate(514,311)" d="m0 0 5 3 3 5-1 9-2 4-7-6v-3h5l-3-7z" fill="#242727"/>
<path transform="translate(440,202)" d="m0 0h9l1 7-4 6-5 2z" fill="#DBB982"/>
<path transform="translate(547,875)" d="m0 0h2l3 3 6 1 2 3h-2v12h-2l-1-8-9-1-1-1v-5z" fill="#1E2123"/>
<path transform="translate(238,785)" d="m0 0v3l-11 4-10 2h-30l-9-2-1-6 8 4 12 2h17l15-3z" fill="#3D372D"/>
<path transform="translate(184,215)" d="m0 0 2 1-3 5-2 2-1 6-2-1-5 1-2-1v-6l7-6z" fill="#262A2C"/>
<path transform="translate(947,93)" d="m0 0 3 1v31l-4-4v-20z" fill="#A27D4E"/>
<path transform="translate(460,61)" d="m0 0h15l10 1 4 3-39 3 2-1v-2h12v-2z" fill="#332F26"/>
<path transform="translate(810,343)" d="m0 0h12l3 2-3 2-21 1-10-1 1-3z" fill="#A27D4E"/>
<path transform="translate(599,871)" d="m0 0 2 2 8 2v13l-4 4-1-11-6-2-2-4z" fill="#23211C"/>
<path transform="translate(698,790)" d="m0 0h2v2l8 1-1 10-3 11h-1v-13l-7-5z" fill="#22211E"/>
<path transform="translate(195,139)" d="m0 0 3 3 10 18 1 5h3l1 4-2 2-5-5-8-16-3-7z" fill="#504534"/>
<path transform="translate(401,484)" d="m0 0h5l5 13v3l5-2-1 6-2 3-3-1-9-21z" fill="#202427"/>
<path transform="translate(660,158)" d="m0 0 1 4 10 2v2l2 1-3 1h-10v6l-2 3h-2v-8z" fill="#2E2B23"/>
<path transform="translate(88,89)" d="m0 0 2 3 2 5 1 6v27l-3 1v-17z" fill="#EBD7B5"/>
<path transform="translate(83,79)" d="m0 0 1 2 4 2 14 10 4 1v2h-6l3 5-1 3-5-7-8-8-6-5-1-4z" fill="#A07C4E"/>
<path transform="translate(80,73)" d="m0 0 22 3 3 4-21 1v-2l-4-2z" fill="#EBD6B4"/>
<path transform="translate(86,957)" d="m0 0 10 1 3 1v2l-17 2h-11l1-3 5-2z" fill="#DBB77D"/>
<path transform="translate(581,639)" d="m0 0h13l3 3 1 5-3 5-3-1v-8l-8-1v7l-3 1z" fill="#2A2925"/>
<path transform="translate(893,462)" d="m0 0 2 3 9 17h2l1-3 1-13h1v5l4-2 4-6 1 3-6 9h-2l-1 5-4 7h-3l-1-4-8-17z" fill="#40382B"/>
<path transform="translate(461,340)" d="m0 0 4 1 4 5-1 2-3-1 3 5 2 1 1-4 1 3h5l-3 2h-3l-1 2-10-5v-10z" fill="#232628"/>
<path transform="translate(470,246)" d="m0 0 3 1 11 1 2 1-1 4-2 3-12-2-1-1z" fill="#1F2224"/>
<path transform="translate(508,484)" d="m0 0 2 1 1 3-4 4v6l5 6v1l6 1v1h-8l-6-4-2-5v-7z" fill="#2A2B29"/>
<path transform="translate(561,393)" d="m0 0h15l6 2v2l-11 2h-9l-3-2z" fill="#232728"/>
<path transform="translate(438,374)" d="m0 0 5 2 5 6 10 5-1 2 13 1v1h-17l-10-8-5-6z" fill="#272A2A"/>
<path transform="translate(314,229)" d="m0 0 4 2 8 7 3 4h-12l-3-4z" fill="#DCBB85"/>
<path transform="translate(506,638)" d="m0 0h7l5 3-1 2-10-1-4 4-1 7v3h-3l-1-2v-9l4-5z" fill="#1F2222"/>
<path transform="translate(713,348)" d="m0 0h12l1 2-1 2h-14l-9 7-8 6-2-1 7-7 4-5 8-3z" fill="#D6B47A"/>
<path transform="translate(268,748)" d="m0 0 27 1 4 2h-19l-1 2v-3h-10l1 16 2 7-3 6h-1z" fill="#B19A69"/>
<path transform="translate(687,367)" d="m0 0 2 1-1 2 6 2v4h14v1h-30l3-2-1-2 4-4z" fill="#EEDBBD"/>
<path transform="translate(438,348)" d="m0 0 8 1 12 7 1 2h-12l-8-7z" fill="#1E2326"/>
<path transform="translate(259,86)" d="m0 0 4 2 6 4 12 4h25l11-2v2l-14 3h-19l-12-3-9-5-4-3z" fill="#2F2C24"/>
<path transform="translate(468,762)" d="m0 0h1v5h12v4l-12 4-1 2h-2v-8z" fill="#23211D"/>
<path transform="translate(118,450)" d="m0 0h1l-1 9-1 14 2 11-3-3-13-19-1-4 5 5 6 8 1-2 2-13z" fill="#3C3529"/>
<path transform="translate(483,314)" d="m0 0h2l1 2v15l2 5-2 3h-2l-3-9-1-1v-9z" fill="#2F2F2C"/>
<path transform="translate(540,314)" d="m0 0h3l-1 11-4 6-3 2-1-1v-7l5-10z" fill="#232728"/>
<path transform="translate(195,773)" d="m0 0h19l14 2 10 4 2 4-11-4-20-3v-1l-14-1z" fill="#42392C"/>
<path transform="translate(561,360)" d="m0 0 9 1-4 2-25 3-5 3-4 3-3 1 2-4 7-5 12-3z" fill="#232321"/>
<path transform="translate(920,522)" d="m0 0 4 1-1 6-1 3-6 2-3-5-2-2 3-4z" fill="#DCB87D"/>
<path transform="translate(525,321)" d="m0 0 4 1 2 2 2 15v6l-3-2-5-15z" fill="#232626"/>
<path transform="translate(160,80)" d="m0 0h27v3h-8l1 5-12-2v-1l5-1-3-1-11-1z" fill="#DCB87D"/>
<path transform="translate(919,952)" d="m0 0h22l9 3 4 3v2l-12-3-12-1v-2l-11-1z" fill="#E7CB90"/>
<path transform="translate(932,878)" d="m0 0 2 1-3 39h-1v-18l-1 7h-1v-12l3-15z" fill="#DBB77C"/>
<path transform="translate(403,872)" d="m0 0 2 2 10 2 3 3-3 2h-14v-7z" fill="#1E1E1D"/>
<path transform="translate(818,842)" d="m0 0 4 2 11 9 13 10 7 7h-3l-17-13-10-9z" fill="#CFAF76"/>
<path transform="translate(411,811)" d="m0 0 4 1v14l-1 10-2 5h-2l1-11v-13l-7-2v-1h8l1-2z" fill="#2D2820"/>
<path transform="translate(568,365)" d="m0 0h9v2l-3 2 7 1v3l-16 1 1-3-2-1v-2z" fill="#282927"/>
<path transform="translate(425,756)" d="m0 0h6l3 4v7l-1 1-10-1 3-6z" fill="#D6B47A"/>
<path transform="translate(850,156)" d="m0 0 2 1-11 10-10 8-10 9v-3l9-10 17-13z" fill="#D5B379"/>
<path transform="translate(694,935)" d="m0 0 2 1-9 5-2-1zm-11 6 2 1h-3zm-3 2 2 1h-3zm-3 2 2 1h-3zm-3 2 2 1h-3zm-3 2 2 1-8 7 4 2-17 4 4-4 14-9z" fill="#393228"/>
<path transform="translate(905,504)" d="m0 0 2 1-4 2zm-4 3 2 1h-3zm-3 2 2 1-1 2-5 3-7 6-1 3 4 2-3 2-8 3-3-1 7-8 8-8z" fill="#3E362A"/>
<path transform="translate(454,361)" d="m0 0 4 1 1 5h-18l-4-2v-2z" fill="#252828"/>
<path transform="translate(474,191)" d="m0 0h2l4 4-1 10 2 8 1 3-1 2h-4v-8l-1-1v-10l-3-1-1-4z" fill="#2B2821"/>
<path transform="translate(531,191)" d="m0 0 6 5-1 5-2 1-3 7-5 3-2-2 3-1-2-2 3-1 2-4v-3l-2-1 2-5z" fill="#27241F"/>
<path transform="translate(742,171)" d="m0 0 5 3-1 7-4 4h-6v-3z" fill="#D9B67C"/>
<path transform="translate(827,138)" d="m0 0h2l-3 12-6 11h-2l-1 3-1-3 3-6 1-6z" fill="#746447"/>
<path transform="translate(445,815)" d="m0 0 3 1v2h5l-1 5-4 4-5-1-1-7z" fill="#D9B77F"/>
<path transform="translate(504,812)" d="m0 0 3 1 3 7-2 11-2 2-4 1-2-2 4-1 1-4v-7l-4-2 2-5z" fill="#2E2B23"/>
<path transform="translate(446,746)" d="m0 0 1 3-2 1 1 4h5v10l-2 11h-2v-19l-4-1-1-5z" fill="#41382A"/>
<path transform="translate(792,467)" d="m0 0h25v1h-12v2l3 1-16 1-7 1v-3z" fill="#99774B"/>
<path transform="translate(900,940)" d="m0 0h26l9 3-2 2-19-1-5-1v-1l-9-1z" fill="#A27D4E"/>
<path transform="translate(494,880)" d="m0 0 4 2v2l3 1 1 12 4 5-1 2h-9l2-6v-12l-4-3z" fill="#302B23"/>
<path transform="translate(438,389)" d="m0 0h8l5 3-4 3h-10l-7-2 4-3z" fill="#292A29"/>
<path transform="translate(312,228)" d="m0 0 3 1v9l2 4 11-1v-3l2 4h7v1h-29l4-1-1-4h-2l1-5z" fill="#352F26"/>
<path transform="translate(622,628)" d="m0 0 12 1 26 6 10 3 1 3-9-2-25-7-15-3z" fill="#CEAE77"/>
<path transform="translate(504,322)" d="m0 0 4 1-2 9-1 7-5 1-2-2 1-5 4-2-1-3z" fill="#202427"/>
<path transform="translate(343,864)" d="m0 0 2 1v2l3 1v8l2 5-2 3-7-12-2-5z" fill="#2E2A23"/>
<path transform="translate(322,794)" d="m0 0 5 4 3 1-2 11-2 2-2-1v-6l-4-5 1-5z" fill="#2D2922"/>
<path transform="translate(674,794)" d="m0 0h2v2h15l-1 4-1 1h-15z" fill="#181D20"/>
<path transform="translate(140,475)" d="m0 0h1l-1 11-2 23-4-4-5-7 1-2 5 5 2-16z" fill="#3D362A"/>
<path transform="translate(170,153)" d="m0 0 6 4 13 10 11 10 1 3-4-2-14-12-11-9z" fill="#C5A672"/>
<path transform="translate(427,874)" d="m0 0h2l5 5v8l-2 8h-1l-2-10-4-5 1-5z" fill="#2F2B23"/>
<path transform="translate(517,810)" d="m0 0h2l1 3 4 2-1 11-2 2-5-10-2-1 2-5z" fill="#302C24"/>
<path transform="translate(612,484)" d="m0 0h8l5 4 2 3v9l-4-1-2-9-3-2-8-1z" fill="#222525"/>
<path transform="translate(553,397)" d="m0 0 5 1 6 7 2 6-8-4-7-7v-2z" fill="#1F2223"/>
<path transform="translate(538,393)" d="m0 0 5 1 4 8v6l-4-2-5-6-1-6z" fill="#272B2E"/>
<path transform="translate(723,312)" d="m0 0 2 1-9 8-9 5-6 3-9 3-4 1 8-8 2 1 4-1 6-1v-2l13-8z" fill="#CBAB77"/>
<path transform="translate(352,165)" d="m0 0h2l4 8 2 1 2 6-5-1-2 4h-3l1-5 1-4-3-4z" fill="#28241E"/>
<path transform="translate(573,196)" d="m0 0 3 1 2 3 1 9-3 3h-6v-2l4-4-3-6v-3z" fill="#312C24"/>
<path transform="translate(82,101)" d="m0 0 2 1 2 19v11l-2 4-2-12z" fill="#E6CEA9"/>
<path transform="translate(676,862)" d="m0 0h6l3 3v8l1 4-3-1-2-7h-5l-2-4-4-2z" fill="#342F25"/>
<path transform="translate(299,534)" d="m0 0h38l1 1v6h-9v-1h7v-4h-25l-12-1z" fill="#473C2C"/>
<path transform="translate(968,472)" d="m0 0 4 1-1 3-5 3-11 4-5 1-1-4 6-2 8-2z" fill="#B49C6A"/>
<path transform="translate(906,138)" d="m0 0 12 7 2 4-4 2-4-1-1-3-2-1v-2h-2v-2l-4-1z" fill="#E6CEA9"/>
<path transform="translate(416,738)" d="m0 0h18l-3 2h-4v2h-2l-1 2-5 2-6-2-2-3 5-2z" fill="#9E7B4D"/>
<path transform="translate(97,490)" d="m0 0 5 2 13 10 12 8v2l-5-2-19-13v-2l-5-1-1 2z" fill="#3D3529"/>
<path transform="translate(364,869)" d="m0 0h5l1 5-5 5-3 6h-3l1-4 2-7v-4z" fill="#312C23"/>
<path transform="translate(546,674)" d="m0 0 6 1 1 1v6l-3 2-5-1-2-2 1-5z" fill="#5C4F39"/>
<path transform="translate(450,247)" d="m0 0 9 2v5l1 2h-15l3-2z" fill="#40382B"/>
<path transform="translate(542,332)" d="m0 0 4 3v2l4 2-1 3h-2l-1-2-2 5-4-1-1-2v-6z" fill="#32322E"/>
<path transform="translate(807,850)" d="m0 0 4 4 10 18 6 12-1 2-13-22-6-12z" fill="#D3B179"/>
<path transform="translate(348,823)" d="m0 0 8 2-1 9-2 2h-3l1-3h2v-3h-11l1-3 4-2z" fill="#2B2821"/>
<path transform="translate(63,404)" d="m0 0 2 2 2 5 6 12v7l-3-2-5-10-2-8z" fill="#B59D6B"/>
<path transform="translate(479,393)" d="m0 0h3v8l-4 6-3 1v-10l2-4z" fill="#1C2022"/>
<path transform="translate(619,200)" d="m0 0h2l5 7-4 8-4 1 1-5 1-3h-2l-1-6z" fill="#252420"/>
<path transform="translate(292,902)" d="m0 0 3 1-3 3v8l4 3 8 1-2 2h-7l-5-3-3-5 1-8z" fill="#9E7A4C"/>
<path transform="translate(573,874)" d="m0 0 2 1 17 1v7h-1v-6h-10v3l6 1v1h-14l-1 2v-8z" fill="#2A2721"/>
<path transform="translate(493,811)" d="m0 0 7 5v3l-4 1v8l-3 2-1-10-2-3 1-4z" fill="#363026"/>
<path transform="translate(289,799)" d="m0 0 10 1h2l-2 4-9 1-2 10-3 1 1-10z" fill="#302B23"/>
<path transform="translate(485,484)" d="m0 0h10l2 1v3h-10l-4 1-1 9h-1v-6l-3 1 1-5z" fill="#36322B"/>
<path transform="translate(311,151)" d="m0 0 3 1v2l4 2-1 13-2-2-2-5-4-5 1-5z" fill="#22201C"/>
<path transform="translate(61,61)" d="m0 0 5 2 4 2 9 8 4 7h-3l-13-13-6-5z" fill="#775F40"/>
<path transform="translate(202,842)" d="m0 0 1 2-8 7-10 9-11 8h-3l11-10 14-11z" fill="#D0AF76"/>
<path transform="translate(96,462)" d="m0 0 4 2 8 11-1 3-9-6-2-5z" fill="#363027"/>
<path transform="translate(469,355)" d="m0 0 10 1 11 13-1 2-7-3-5-8-9-3z" fill="#EEDEC1"/>
<path transform="translate(299,152)" d="m0 0 2 1v2l5 1v12l-3 1-1-2v-6l-4-1v-7z" fill="#27231E"/>
<path transform="translate(25,27)" d="m0 0 7 4 3 2v2l4 2 4 4-1 3-9-6-8-8z" fill="#A07C4E"/>
<path transform="translate(200,841)" d="m0 0h2v2l-11 9-13 11-6 5-3 3v-3l10-10 13-10z" fill="#353026"/>
<path transform="translate(697,534)" d="m0 0h29v7l-1 1h-5l4-2v-4h-27z" fill="#3D3427"/>
<path transform="translate(435,194)" d="m0 0 1 2-1 2h8l-1 2 6 1v1h-8l1 4v11l-2-3-1-11-4-1v-7z" fill="#322E28"/>
<path transform="translate(705,116)" d="m0 0 4 1 3 3 1 3v7l-3 6-5 3h-6l4-2 5-4 1-2v-8l-2-4-2-1z" fill="#A27D4E"/>
<path transform="translate(915,107)" d="m0 0 2 4-5 5-6 8-1-3 1-1 1-8-4 1v-2z" fill="#E6CEA9"/>
<path transform="translate(87,921)" d="m0 0 3 1-1 6-4 11h-2l-1 3-3 2 1-7 5-9z" fill="#E7CFA7"/>
<path transform="translate(500,357)" d="m0 0 5 1 1 1-1 8-3 1-1-6-1 1-1 3h-3l-1-6z" fill="#282724"/>
<path transform="translate(465,323)" d="m0 0 4 2 5 7v6l-3 1-6-9z" fill="#242728"/>
<path transform="translate(711,306)" d="m0 0h3l-1 7h-2l-2 4-6 5h-2l-1 3-2-1 6-8z" fill="#DAB881"/>
<path transform="translate(526,876)" d="m0 0 7 5-1 6-2 5-2 1-1-8-3-3 1-5z" fill="#2F2B24"/>
<path transform="translate(523,339)" d="m0 0 4 1 2 4-3 5-8 4h-5v-2l11-6z" fill="#282824"/>
<path transform="translate(502,190)" d="m0 0h2l3 3 3 2v12h-2l-2-7-5-3z" fill="#23211D"/>
<path transform="translate(877,92)" d="m0 0 4 1 20 1 1 2-7 1h-15l-6-1z" fill="#E6CEA9"/>
<path transform="translate(415,876)" d="m0 0 4 1 3 7v7l-2 3h-3v-10l-1-1-7-1v-1l8-2v-2z" fill="#322C23"/>
<path transform="translate(493,646)" d="m0 0h1v8l-4 5-4 2h-8l3-3 7-3 3-8z" fill="#272928"/>
<path transform="translate(341,145)" d="m0 0 2 2 12 1v1h-6v3l4 1-9 2h-3l-1-8z" fill="#202120"/>
<path transform="translate(452,735)" d="m0 0h12l-3 2-16 1-3 1h-22v-1z" fill="#B19A69"/>
<path transform="translate(926,463)" d="m0 0h1v8l-10 7h-2l2-5 5-6z" fill="#393328"/>
<path transform="translate(494,322)" d="m0 0 4 1-1 7-4 2-5-1 1-5z" fill="#2A2D2B"/>
<path transform="translate(348,209)" d="m0 0 5 1 4 8 1 11h-2l-2-8-1-5-3-1-4-2 2-1-3-2z" fill="#332E24"/>
<path transform="translate(76,86)" d="m0 0h1v16l-2 4v-4h-2l-4-8-3-1h2l1-3 4 1 2 3z" fill="#E3C79B"/>
<path transform="translate(86,901)" d="m0 0h2v20l-3 6h-1l1-23z" fill="#A27D4E"/>
<path transform="translate(437,810)" d="m0 0h2l2 3 4 1-2 5-2 3-3 1-3-7 1-5z" fill="#2E2B23"/>
<path transform="translate(211,850)" d="m0 0 1 3-14 29-2 1 3-10 11-22z" fill="#CEAE76"/>
<path transform="translate(552,329)" d="m0 0 4 1 2 4v11l-2 2-4-11z" fill="#272826"/>
<path transform="translate(546,149)" d="m0 0 3 4 8-3 1 4-7 3h-3l-1 4h-3l1-8z" fill="#383227"/>
<path transform="translate(76,76)" d="m0 0 7 6 1 2v9l-3-1-3-7-2-2z" fill="#E9D3B1"/>
<path transform="translate(945,71)" d="m0 0 2 1-6 6-8 1h-9l3-2h3v-2z" fill="#E7CFA6"/>
<path transform="translate(213,846)" d="m0 0 2 3-4 10h-2l2-8-10 20h-2l2-6 9-17z" fill="#3F382B"/>
<path transform="translate(600,751)" d="m0 0h14v1h-13l1 10v8l-3 1-1-16h2z" fill="#3C3428"/>
<path transform="translate(924,489)" d="m0 0h2v31l-1 1h-7l4-2h2l1-27-4 1zm-5 4 2 1-8 7-2-1z" fill="#363127"/>
<path transform="translate(544,376)" d="m0 0 4 1 1 4-5 5h-3l-1 2-8-1v-1l8-1 1-5z" fill="#3E372B"/>
<path transform="translate(444,369)" d="m0 0h7l4 7v4l-7-1-2-1v-2l3-1-5-4z" fill="#272521"/>
<path transform="translate(921,934)" d="m0 0 6 1 6 4 6 5v1h-5l-3-2-5-2v-2l-5-1z" fill="#E5C992"/>
<path transform="translate(543,638)" d="m0 0h2l3 9-2 2v3h-6l2-7h-2l2-6z" fill="#747066"/>
<path transform="translate(377,139)" d="m0 0 5 3-1 6-2 6-1 5-3-3 1-9-1-4z" fill="#2B2821"/>
<path transform="translate(950,924)" d="m0 0 2 4 3 3 1 3-1 12h-2v-3h-2z" fill="#E3C89E"/>
<path transform="translate(448,810)" d="m0 0h3v3h6l1 4-2 3-8-2-1-5z" fill="#312C24"/>
<path transform="translate(756,742)" d="m0 0h2l1 31-1 5h-1l-1-8z" fill="#433A2C"/>
<path transform="translate(563,642)" d="m0 0h7l2 2-1 5-1 1h-7z" fill="#F6E9D2"/>
<path transform="translate(159,577)" d="m0 0h9v19l-1 15h-1v-32l-7-1z" fill="#2B2822"/>
<path transform="translate(166,558)" d="m0 0h2v9h-27l2-2h23z" fill="#3B3429"/>
<path transform="translate(684,150)" d="m0 0h2l6 8-2 5-4-2-4-6z" fill="#332E24"/>
<path transform="translate(929,899)" d="m0 0 2 1v18l3 12-1 3-4-8-1-4v-14z" fill="#A27D4E"/>
<path transform="translate(593,746)" d="m0 0h1l1 5 3 1-2 4-9 1-1 3v-7h2l1-3 3 1z" fill="#AF9767"/>
<path transform="translate(479,638)" d="m0 0 9 1 5 5v3l-3 1-3-5-6-1-5 1 1-4z" fill="#242320"/>
<path transform="translate(856,519)" d="m0 0h2v23l-3 1-1-4 1-1-2-1 1-3 2-1v-3l-5-1 4-4h2z" fill="#D6B278"/>
<path transform="translate(954,85)" d="m0 0h1v5h3l-1 6-3 3-2 5h-1l1-17h2z" fill="#E6CEA9"/>
<path transform="translate(947,77)" d="m0 0h1v8l-2 14-2 1-1-7 1-12z" fill="#E7D0AD"/>
<path transform="translate(555,747)" d="m0 0 9 1v1l-4 1 11 1-3 3h-13l-2-1 1-5z" fill="#202427"/>
<path transform="translate(572,384)" d="m0 0h10l-4 4-4 2h-8l-1-3z" fill="#383732"/>
<path transform="translate(366,221)" d="m0 0 3 4 2 3-3 3v8l1 3h-3l-2-9v-9z" fill="#302B23"/>
<path transform="translate(684,214)" d="m0 0 12 3 2 2h-10l3 3v2l-9-3 1-6z" fill="#25221D"/>
<path transform="translate(530,131)" d="m0 0 4 2 2 2-2 9-2 3h-2l1-7-2-2v-6z" fill="#2F2B23"/>
<path transform="translate(618,882)" d="m0 0 3 1 1 2v7h2l-1 5h-4l-1-2z" fill="#352E24"/>
<path transform="translate(163,679)" d="m0 0h22v3l-10 1h-12v-1h7v-2h-7z" fill="#715A3E"/>
<path transform="translate(670,650)" d="m0 0 6 1 8 4 7 3 8 5v2l-5-1-15-9-9-4z" fill="#D0B17B"/>
<path transform="translate(345,211)" d="m0 0 4 1-1 1 4 2-2 1h-16v-4z" fill="#181F24"/>
<path transform="translate(258,794)" d="m0 0 2 1-4 3-1 22-1 5h-1v-29z" fill="#433A2C"/>
<path transform="translate(554,755)" d="m0 0h15v1l-11 1v18h-2l-1-5v-10l1-4z" fill="#3F3629"/>
<path transform="translate(347,749)" d="m0 0h5v3l-5 2h-10v-2l-3-1 1-1z" fill="#D9B67B"/>
<path transform="translate(585,642)" d="m0 0h7l1 1v6l-1 1h-7z" fill="#F8ECD7"/>
<path transform="translate(455,876)" d="m0 0h2l1 3 3 2-1 9h-3l-3-7-1-4z" fill="#26241F"/>
<path transform="translate(815,840)" d="m0 0h3l3 5 9 9 12 9-3 1-10-8-6-5v-2l-3-1-5-6z" fill="#3A3429"/>
<path transform="translate(526,747)" d="m0 0 4 1-3 2-1 7-2 1v-2h-2v-4l-17-2 2-2 6 1h13z" fill="#AD9565"/>
<path transform="translate(482,387)" d="m0 0h11v3l-4 1h-7l-10 6h-2v-2l10-6h2z" fill="#38332B"/>
<path transform="translate(524,204)" d="m0 0 1 2 3 1-2 6-3 1-2 5-1 2h-2l2-9z" fill="#332D24"/>
<path transform="translate(435,196)" d="m0 0h16v5l-3 1-8-1 2-2-7-1z" fill="#1A1917"/>
<path transform="translate(919,97)" d="m0 0 2 1-5 6-8 3-6-1 3-1 1-3 10-3z" fill="#EBD7B6"/>
<path transform="translate(350,894)" d="m0 0 4 1v6l-1 1h-7l-1-4 2-3z" fill="#D8B881"/>
<path transform="translate(443,876)" d="m0 0 3 1 3 4v6h-4l-4-5 1-5z" fill="#222220"/>
<path transform="translate(557,756)" d="m0 0h13l-1 4-10 3z" fill="#B19968"/>
<path transform="translate(167,596)" d="m0 0h1v18l-2 21h-1v-23l1-1z" fill="#40382B"/>
<path transform="translate(207,87)" d="m0 0h2l9 12-3 3-3-1-3-7-2-4z" fill="#E6CEA9"/>
<path transform="translate(467,360)" d="m0 0h5l2 4-1 2 6 1v1l-11 1z" fill="#F0E2C8"/>
<path transform="translate(452,393)" d="m0 0h2v3l1-2 5 2-1 3-2 1h-8l-1-4z" fill="#252828"/>
<path transform="translate(703,220)" d="m0 0 2 1 1 3v12l-2 8h-1l-1-17-1-2h2z" fill="#3C3428"/>
<path transform="translate(110,72)" d="m0 0h14v2l-5 2h-14v-2z" fill="#A27D4E"/>
<path transform="translate(449,62)" d="m0 0h16l-1 3h-12v2l-5 1z" fill="#262828"/>
<path transform="translate(272,958)" d="m0 0 2 1-3 24-3 2 2-20z" fill="#DCC298"/>
<path transform="translate(593,809)" d="m0 0 14 1-1 4h-13z" fill="#151C21"/>
<path transform="translate(685,744)" d="m0 0 2 1-1 3h2v-3h3l2 8v6h-4l1-9-5 1z" fill="#1C1C19"/>
<path transform="translate(453,639)" d="m0 0h1l1 19h12l-1 3h-13z" fill="#453E32"/>
<path transform="translate(590,197)" d="m0 0h3l1 4h2l-1 7-2-1-2 2-4-8z" fill="#352F26"/>
<path transform="translate(720,942)" d="m0 0h8l8 2v2l-13-1-11 1-3-2z" fill="#DAC299"/>
<path transform="translate(295,178)" d="m0 0h1v7l-3 2h-6l-1-5 2-2h3v2h4z" fill="#25221D"/>
<path transform="translate(365,141)" d="m0 0 3 1v2l4 1-1 6-6-1-2-2 1-5z" fill="#2A2822"/>
<path transform="translate(84,876)" d="m0 0h1v14l-1 1-1 14h-1l-1-23z" fill="#E6CEA9"/>
<path transform="translate(531,246)" d="m0 0 5 3-2 5-3 3h-4v-5z" fill="#383127"/>
<path transform="translate(322,212)" d="m0 0 4 2 2 2v6l-2 2-2-1-1-3-3-1z" fill="#342F26"/>
<path transform="translate(578,745)" d="m0 0h2v2l7 2-2 2-1 4-4-1-3-2z" fill="#292926"/>
<path transform="translate(440,748)" d="m0 0 3 2 1 5 3 2-8 2-2-3v-7z" fill="#AF9868"/>
<path transform="translate(167,524)" d="m0 0h1v26h-2l-7-10 1-2 4 5h2z" fill="#4A3F2F"/>
<path transform="translate(553,366)" d="m0 0 5 1-1 4-1 2h-8l-1-3z" fill="#2F3130"/>
<path transform="translate(701,300)" d="m0 0 4 1 1 1v7l-6-1-1-1v-6z" fill="#BB9764"/>
<path transform="translate(711,853)" d="m0 0 2 2h11v5h-2v-2l-10-1v4h6v2h-6l-2-2v-7z" fill="#383026"/>
<path transform="translate(594,818)" d="m0 0 3 1 1 2v9l-3 4h-2l2-5 1-6-5 2 2-6z" fill="#373026"/>
<path transform="translate(292,793)" d="m0 0 12 1v5l-3 2-4-3v-2l-7-1z" fill="#1B2023"/>
<path transform="translate(703,686)" d="m0 0h4v2h2l-1 6-4 1-3-2v-5z" fill="#B08C5A"/>
<path transform="translate(315,685)" d="m0 0 5 3 1 5-1 1-7-1v-6z" fill="#CBA870"/>
<path transform="translate(318,668)" d="m0 0 2 1-11 10-4-1-2-2z" fill="#EDDBBD"/>
<path transform="translate(560,484)" d="m0 0h12v3h-9v4h-2v5h-1z" fill="#171E23"/>
<path transform="translate(917,466)" d="m0 0 4 3-5 7-2 4-4-2v-3h2l2-5z" fill="#AC9565"/>
<path transform="translate(452,337)" d="m0 0 5 2v11l-4-2-1-2z" fill="#262A2B"/>
<path transform="translate(417,208)" d="m0 0h2v5l-3 1v11h-3v-10z" fill="#332D24"/>
<path transform="translate(561,206)" d="m0 0 1 2h2l-2 14-2 2-1-1v-11z" fill="#342E24"/>
<path transform="translate(950,156)" d="m0 0h1l1 11v17l-4 2 1-9z" fill="#E6CEA9"/>
<path transform="translate(323,149)" d="m0 0 4 2 3 3v8h-1v-5h-2v6h-1l-1-6-3-2z" fill="#352F25"/>
<path transform="translate(532,61)" d="m0 0h16l1 3h-19z" fill="#242420"/>
<path transform="translate(57,55)" d="m0 0 9 6v3l-4-2 1 7-3-2-5-10h2z" fill="#9A774B"/>
<path transform="translate(781,969)" d="m0 0h1v5l-3 5h-4l-4-1-2-2 9-3z" fill="#E2C9A1"/>
<path transform="translate(689,872)" d="m0 0h3l7 10-1 4-5-5-4-6z" fill="#27241E"/>
<path transform="translate(310,793)" d="m0 0h2l1 4h2l-1 4-2 4-5-6 1-4z" fill="#2A2821"/>
<path transform="translate(421,491)" d="m0 0h2l3 11v3h-3l-4-10z" fill="#1D2226"/>
<path transform="translate(926,451)" d="m0 0 4 2-3 1-1 4-3 4v5l-5 2v-5l7-10z" fill="#CAAB74"/>
<path transform="translate(164,434)" d="m0 0 2 1 3 2 6 2v2h-4l3 1-2 4-3-3-5-2z" fill="#D8B67C"/>
<path transform="translate(483,374)" d="m0 0 5 1 3 6-1 1h-5l-4-3v-2h2z" fill="#242728"/>
<path transform="translate(572,356)" d="m0 0 10 2v2l-12 2-8-1v-1l9-1z" fill="#4A4438"/>
<path transform="translate(889,77)" d="m0 0h19l-2 2-10 1h-11l-1-2z" fill="#ECD6A6"/>
<path transform="translate(942,901)" d="m0 0h2l1 12v12l-3-4z" fill="#E8D0A5"/>
<path transform="translate(393,880)" d="m0 0 3 3 2 6 1 4-2 3h-3l-1-2z" fill="#312C23"/>
<path transform="translate(657,875)" d="m0 0 2 1v14l-4 4 1-16z" fill="#2A2720"/>
<path transform="translate(703,867)" d="m0 0 4 1 4 11 1 9-2-2-3-9-4-5z" fill="#5B4B34"/>
<path transform="translate(433,750)" d="m0 0 3 1-1 6-10-2v-2l-2-1 1-1z" fill="#151B20"/>
<path transform="translate(624,498)" d="m0 0 2 4-5 4-2 1h-8v-2l6-2 4-2z" fill="#272724"/>
<path transform="translate(717,338)" d="m0 0h6l1 5-6 3h-2l-1-4z" fill="#D8B47B"/>
<path transform="translate(492,246)" d="m0 0 4 2 2 5-2 4-5-4-1-4z" fill="#26241F"/>
<path transform="translate(677,154)" d="m0 0 2 1-1 8-3 3h-4v-2l-2-1 5-3 2-4z" fill="#2C2720"/>
<path transform="translate(510,130)" d="m0 0 13 3v6l-1-4-11-1v2l9 1v1h-11v-7z" fill="#25221E"/>
<path transform="translate(74,68)" d="m0 0h7l2 2 7 1 1 2-9 1-2-1-1 2z" fill="#DAB67C"/>
<path transform="translate(376,745)" d="m0 0 5 2v10h-3v-6h-3v-5z" fill="#2E2921"/>
<path transform="translate(520,247)" d="m0 0h2l4 5 1 5h-2v-2l-4 1v-2l-4-2 2-4z" fill="#202120"/>
<path transform="translate(680,224)" d="m0 0 4 1-1 13-2 4h-2l1-12z" fill="#352E24"/>
<path transform="translate(327,157)" d="m0 0h2v9l-4 7-4 2 4-10z" fill="#23211C"/>
<path transform="translate(276,168)" d="m0 0h6l-4 1 3 15v6h-2l-2-9z" fill="#40382B"/>
<path transform="translate(259,86)" d="m0 0 4 2 6 4 12 4 6 1v2l-12-2-12-6-4-3z" fill="#393328"/>
<path transform="translate(552,878)" d="m0 0h13l2 1-1 4-5 1-3-2-1-2-5-1z" fill="#2A2821"/>
<path transform="translate(456,748)" d="m0 0 9 1 2-1-1 9-3 3v-3h-2v-6h-2v-2z" fill="#AF9868"/>
<path transform="translate(873,578)" d="m0 0h26l-4 2-12 1-10-1z" fill="#42392C"/>
<path transform="translate(552,484)" d="m0 0h2l1 11v11h-3z" fill="#282A2A"/>
<path transform="translate(561,360)" d="m0 0 9 1-4 2-17 1-5-1v-1z" fill="#302E29"/>
<path transform="translate(569,342)" d="m0 0 2 1-9 5-4 4-3-1-1-2 2-4v2z" fill="#443D30"/>
<path transform="translate(931,918)" d="m0 0 1 3 3 1 2 8v3h2l-1 4-3-4v-3h-2l-2-6z" fill="#E2C79B"/>
<path transform="translate(653,808)" d="m0 0h2l1 2 1 16h-3z" fill="#41382A"/>
<path transform="translate(669,806)" d="m0 0 2 4 2 7v6l-3 1-2-11-1-4z" fill="#362F25"/>
<path transform="translate(501,653)" d="m0 0h2l4 4 7 2v2h-9l-4-4-1-3z" fill="#262726"/>
<path transform="translate(490,351)" d="m0 0h7l-1 5-4 3h-2l-1-7z" fill="#222424"/>
<path transform="translate(729,217)" d="m0 0 3 2-1 7-2 13h-2v-7l1-5v-9z" fill="#A27D4E"/>
<path transform="translate(715,160)" d="m0 0 7 1 1 2h-3l1 3 2 2-7-1v-2l-3-1z" fill="#1D2022"/>
<path transform="translate(469,890)" d="m0 0h1l1 9 1 3-1 2-5-1v-7z" fill="#302B22"/>
<path transform="translate(519,885)" d="m0 0h1l1 6v11l-3 1-1-15z" fill="#3F3628"/>
<path transform="translate(609,815)" d="m0 0 2 2v16h-2l-1-2v-13z" fill="#453A2B"/>
<path transform="translate(436,651)" d="m0 0h6l2 5-4 2h-4z" fill="#F0E3CA"/>
<path transform="translate(713,348)" d="m0 0h12l1 2-1 2h-15l1-3z" fill="#DAB77D"/>
<path transform="translate(517,321)" d="m0 0 3 4v6h-3l-5-5v-3h5z" fill="#2A2D2D"/>
<path transform="translate(768,204)" d="m0 0h3l1 3-2 3 1 7 1 3-3 1-2 2v-7l-2-1 2-5 3-5z" fill="#4C4030"/>
<path transform="translate(451,197)" d="m0 0 2 2v10l-2 5-3-1 1-9v-3h2z" fill="#302A22"/>
<path transform="translate(854,153)" d="m0 0h2l-1 4-13 11-4 3-2-1 14-12zm-20 18 2 1h-3z" fill="#41392C"/>
<path transform="translate(635,876)" d="m0 0 2 4 1 5v9l-2 1-2-10-1-7z" fill="#2C2821"/>
<path transform="translate(586,820)" d="m0 0 2 4-1 12-3-1v-12z" fill="#3E3528"/>
<path transform="translate(678,804)" d="m0 0 2 2 1 17h-2l-1-2-1-15z" fill="#2A2720"/>
<path transform="translate(386,751)" d="m0 0 5 2 1 2v7l-2-4h-4l-1 4v-9z" fill="#B09968"/>
<path transform="translate(523,674)" d="m0 0 3 1 2 9-1-2h-6v2h-2l2-6z" fill="#605746"/>
<path transform="translate(495,673)" d="m0 0 15 1v1h-5v9l-2-1-1-7-6-1v5h-2v-6z" fill="#3E3A31"/>
<path transform="translate(581,639)" d="m0 0h9l2 2-7 1-1 7-3 1z" fill="#191D1F"/>
<path transform="translate(562,498)" d="m0 0h1v5h9v4h-12l2-3z" fill="#41382A"/>
<path transform="translate(446,498)" d="m0 0h2v5h10v3h-12z" fill="#27231D"/>
<path transform="translate(879,475)" d="m0 0h2l2 3v6l-4 2-2-2z" fill="#DCB87D"/>
<path transform="translate(475,359)" d="m0 0 4 2 2 5-2 2-6-2-1-6z" fill="#2B2C2A"/>
<path transform="translate(271,229)" d="m0 0h3l2 9 5 2-4 2v-2l-5-2-2-3v-5z" fill="#A27D4E"/>
<path transform="translate(476,200)" d="m0 0 2 1 3 12 1 3-1 2h-4v-8l-1-1z" fill="#3F372A"/>
<path transform="translate(585,136)" d="m0 0 4 2 3 1-1 4h-2l-1 2h-2v-3h-3l1-5z" fill="#1F2122"/>
<path transform="translate(240,97)" d="m0 0h3l2 20h-2l-2-18-5 1-2-2z" fill="#3E362A"/>
<path transform="translate(503,756)" d="m0 0h2l1 2v15l-1 3h-2z" fill="#2F2B23"/>
<path transform="translate(259,230)" d="m0 0 2 3 1 5v8l-4 1z" fill="#242A2F"/>
<path transform="translate(721,213)" d="m0 0h2l2 6-1 18h-1l-1-11-4-2 5-1-2-4z" fill="#9D794C"/>
<path transform="translate(475,140)" d="m0 0h1v18l-3 1v-11z" fill="#393226"/>
<path transform="translate(767,36)" d="m0 0h1l-1 10-2-2v-3l-6 2-2 3h-2l2-4 7-5z" fill="#3A3328"/>
<path transform="translate(548,819)" d="m0 0h1l1 18h-3v-9l-1-5z" fill="#2B2720"/>
<path transform="translate(384,751)" d="m0 0h1v15l-3 1v-14z" fill="#26241F"/>
<path transform="translate(367,747)" d="m0 0h6l1 5-9 1v-5z" fill="#DCB87D"/>
<path transform="translate(450,385)" d="m0 0 6 1 2 2-1 1 13 1v1h-17l-3-3z" fill="#3B362D"/>
<path transform="translate(593,204)" d="m0 0 2 4 3 9-5 1-1-11z" fill="#27241E"/>
<path transform="translate(382,869)" d="m0 0 2 1v2l9 1-1 2h-6l-2 1 1 2-5-1z" fill="#27241E"/>
<path transform="translate(715,796)" d="m0 0 2 4 2 6v2l3 1h-2l-1 3-3-4-2-4z" fill="#322C23"/>
<path transform="translate(601,752)" d="m0 0h13v3l-7 1-3 1-3-1z" fill="#B39B69"/>
<path transform="translate(231,461)" d="m0 0h10v4l-11 1z" fill="#A07C4D"/>
<path transform="translate(309,340)" d="m0 0 5 1 1 1v5h-6l-2-4z" fill="#B99662"/>
<path transform="translate(638,213)" d="m0 0 3 2v7l-5 8-1-3 2-5z" fill="#342E24"/>
<path transform="translate(698,152)" d="m0 0 6 5-2 1v3l-5-1-1-1v-5z" fill="#202221"/>
<path transform="translate(406,149)" d="m0 0h2l-4 16-2 1v-8l2-8z" fill="#383227"/>
<path transform="translate(576,150)" d="m0 0 1 4-4 5-1 5-4 1 1-4 3-6z" fill="#302B22"/>
<path transform="translate(936,130)" d="m0 0h1v21l-2-1-1-15z" fill="#E7D0A5"/>
<path transform="translate(93,131)" d="m0 0 5 4-1 8-2 1v-2h-2z" fill="#A27D4E"/>
<path transform="translate(421,973)" d="m0 0 9 1 14 3v1l-13-1-13-2z" fill="#4A3F2F"/>
<path transform="translate(941,928)" d="m0 0h1l3 12 2 7-4-4-5-10 1-3 1 2z" fill="#A37E4F"/>
<path transform="translate(453,819)" d="m0 0h3l-1 5-5 6-5-1 5-4z" fill="#26231E"/>
<path transform="translate(530,674)" d="m0 0h10v10h-1l-1-8h-2l-1 8h-2v-8h-3z" fill="#685C44"/>
<path transform="translate(93,529)" d="m0 0h4v2h2v-2l4 1 2 2v2h-8l-4-3z" fill="#B49C6A"/>
<path transform="translate(494,502)" d="m0 0h4v3l-5 2h-8l1-3z" fill="#2D2A23"/>
<path transform="translate(423,479)" d="m0 0 4 1v6l-3 3-3 1 1-10z" fill="#202426"/>
<path transform="translate(925,476)" d="m0 0 3 1-9 8-6 2 6-7z" fill="#41392B"/>
<path transform="translate(133,456)" d="m0 0 1 4-10 21-3 1 2-6 9-17z" fill="#42392B"/>
<path transform="translate(792,344)" d="m0 0h20v1h-10v2h-11z" fill="#765E3F"/>
<path transform="translate(518,338)" d="m0 0 3 1-1 5-1 1h-6l1-5z" fill="#282725"/>
<path transform="translate(789,211)" d="m0 0h18v1h-12l-1 3-4 1-3-2v-2z" fill="#37342D"/>
<path transform="translate(429,205)" d="m0 0h1l1 7v11h-2l-2-15z" fill="#332D24"/>
<path transform="translate(746,165)" d="m0 0h2l1 6h2l-1 3-5-1-2-1 1-4z" fill="#22201D"/>
<path transform="translate(777,959)" d="m0 0 3 2 3-2v9l-4 2z" fill="#EFE1C7"/>
<path transform="translate(893,462)" d="m0 0 2 3 9 17v2l-3-1-8-17z" fill="#3A3428"/>
<path transform="translate(538,393)" d="m0 0h3v2h-2l3 7 2 2 1-2h2v6l-4-2-5-6-1-6z" fill="#37342B"/>
<path transform="translate(376,219)" d="m0 0h3l-2 4-4 4-5-1-1-2z" fill="#25231E"/>
<path transform="translate(939,161)" d="m0 0h1l1 8 3 1v10l-1-4-3-1v-2h-2z" fill="#E6CEA9"/>
<path transform="translate(63,59)" d="m0 0 10 1-2 2 5 5-4 1-9-8z" fill="#E4CAA0"/>
<path transform="translate(73,932)" d="m0 0h2v11l-3 5-1-2 1-12z" fill="#EEDBBE"/>
<path transform="translate(627,815)" d="m0 0h2l2 14h-4l-1-6z" fill="#302B23"/>
<path transform="translate(192,774)" d="m0 0h18l-1 2-17 1z" fill="#2D2B25"/>
<path transform="translate(356,746)" d="m0 0h10l-2 1v8l-3 1-1-9z" fill="#2B2821"/>
<path transform="translate(224,683)" d="m0 0h7l2 1v5l-9-3z" fill="#725B3E"/>
<path transform="translate(506,638)" d="m0 0h7l5 3-1 2-10-1h-2z" fill="#292622"/>
<path transform="translate(98,476)" d="m0 0 6 3 7 5v2l-5-1-8-6z" fill="#3D3528"/>
<path transform="translate(553,376)" d="m0 0h6l2 1-1 5-4 1z" fill="#2D2F2D"/>
<path transform="translate(792,943)" d="m0 0 2 2-1 8-3 6-2 1 2-10z" fill="#E1C8A0"/>
<path transform="translate(96,904)" d="m0 0 2 3-3 10-2 5-1-4 3-13z" fill="#A27D4E"/>
<path transform="translate(306,671)" d="m0 0 2 1v2l-6 4h-2l-3-5z" fill="#DCB87D"/>
<path transform="translate(442,650)" d="m0 0 5 1 1 6-2 2-6-1 3-2z" fill="#282A2A"/>
<path transform="translate(510,484)" d="m0 0h9l4 3-1 2-5-1-7-1z" fill="#201F1C"/>
<path transform="translate(470,246)" d="m0 0 3 1 11 1 2 1v3h-2v-2h-10l-3-1 1 3h-2z" fill="#2F2A22"/>
<path transform="translate(602,214)" d="m0 0h2l-2 4-6 5-2-3 1-3z" fill="#1F201F"/>
<path transform="translate(421,146)" d="m0 0 3 2 1 14h-4z" fill="#514330"/>
<path transform="translate(460,141)" d="m0 0h1l1 8v10h-2l-1-2v-10z" fill="#342E24"/>
<path transform="translate(35,984)" d="m0 0 2 2-2 4-6 5h-2l2-5z" fill="#866945"/>
<path transform="translate(764,943)" d="m0 0 8 5h3l3 3-1 2-7-1-6-7z" fill="#E4CBA4"/>
<path transform="translate(103,922)" d="m0 0 1 2-4 6-9 8v-3l6-6h2l2-6z" fill="#AE8957"/>
<path transform="translate(436,642)" d="m0 0h6l1 4-2 2h-5z" fill="#F4E6CE"/>
<path transform="translate(551,485)" d="m0 0 2 2-1 19 3 1h-4l-1-15-1-3z" fill="#32322E"/>
<path transform="translate(546,351)" d="m0 0 4 1-1 5-4 3-4-1 4-5z" fill="#1F2223"/>
<path transform="translate(233,347)" d="m0 0h4v6l-8-1-2-3 3-1 3 1z" fill="#7B6241"/>
<path transform="translate(319,233)" d="m0 0 4 2 6 7h-12l1-3h6z" fill="#E0C498"/>
<path transform="translate(726,175)" d="m0 0h1v7l-3 8h-3l1-7 2-3 2 1z" fill="#363127"/>
<path transform="translate(199,146)" d="m0 0 4 5 7 14-1 2-8-14-2-4z" fill="#CFAE76"/>
<path transform="translate(537,756)" d="m0 0h1v16l-2 3h-3l2-11h1z" fill="#433A2B"/>
<path transform="translate(546,676)" d="m0 0h5l1 5-1 1h-5l-1-5z" fill="#F7EBD4"/>
<path transform="translate(140,475)" d="m0 0h1l-1 11-1 8h-2v-9z" fill="#3A3429"/>
<path transform="translate(162,417)" d="m0 0h1l1 7 3 2h-4l1 9h-2l-1-5v-9z" fill="#40372A"/>
<path transform="translate(468,400)" d="m0 0v3l-5 5-4 2-4-1 5-1 1-4z" fill="#212425"/>
<path transform="translate(184,168)" d="m0 0 5 2 10 9 4 1v2l-5-1-14-12z" fill="#3F382D"/>
<path transform="translate(835,167)" d="m0 0m-1 1m-1 1m-2 1 2 1-3 5-8 7-2 1 2-4 7-8z" fill="#C6A772"/>
<path transform="translate(911,157)" d="m0 0h6l2 1-1 3-5 2-3-3z" fill="#E6CEA9"/>
<path transform="translate(447,143)" d="m0 0 3 3v14h-2z" fill="#312B22"/>
<path transform="translate(478,816)" d="m0 0h8l-2 13h-1l-1-9-4-1z" fill="#3A3428"/>
<path transform="translate(577,745)" d="m0 0 1 3v4l3 3-6-1-2 3-1-8 4-2z" fill="#AC9565"/>
<path transform="translate(381,744)" d="m0 0h4l-1 8-3 4-1-9-1-2z" fill="#B39B6A"/>
<path transform="translate(858,530)" d="m0 0h1l1 8 5-2-2 5-2 3h-2l-1-2z" fill="#3F372A"/>
<path transform="translate(885,522)" d="m0 0 1 2 4 2-3 2-9 2 6-7z" fill="#342F26"/>
<path transform="translate(484,360)" d="m0 0 4 2 4 4 1 3-5-1-4-5z" fill="#212425"/>
<path transform="translate(691,230)" d="m0 0 3 1-2 8-1 2h-4l2-6z" fill="#362F25"/>
<path transform="translate(933,164)" d="m0 0 2 4-1 7-4-1 1-9z" fill="#E7CEA4"/>
<path transform="translate(604,147)" d="m0 0h1v5h2l-2 9-2 3h-2l2-8z" fill="#3D3428"/>
<path transform="translate(931,65)" d="m0 0 10 1 1 2-7 2h-5z" fill="#E6CEA9"/>
<path transform="translate(921,923)" d="m0 0 5 5 6 7-2 1-6-4-1-4z" fill="#D6B379"/>
<path transform="translate(591,884)" d="m0 0h1v15l-2 2-1-16z" fill="#2A2721"/>
<path transform="translate(650,741)" d="m0 0 10 1-2 6-4-2z" fill="#BDA26E"/>
<path transform="translate(555,674)" d="m0 0 3 1 5 5v-5h1v9h-2l-4-5-1 5h-1z" fill="#39342B"/>
<path transform="translate(927,458)" d="m0 0 2 4 4 1-3 2-3 10-2-3 1-1v-10z" fill="#DDBD89"/>
<path transform="translate(455,369)" d="m0 0h6l3 3-2 2h-5l-3-4z" fill="#262624"/>
<path transform="translate(504,322)" d="m0 0 4 1-2 9-2 1v-4l-2-1z" fill="#292C2C"/>
<path transform="translate(491,206)" d="m0 0 2 1-1 10-4 1z" fill="#332C23"/>
<path transform="translate(584,142)" d="m0 0h2v3h2l1-3 1 3-6 6-2 3-2-5h3z" fill="#363025"/>
<path transform="translate(95,91)" d="m0 0 4 2 4 8-1 3-5-7-3-3z" fill="#CEB07A"/>
<path transform="translate(90,933)" d="m0 0 3 1-1 2h3v3l-9 2 2-6h2z" fill="#E0C18C"/>
<path transform="translate(555,883)" d="m0 0h3v11h-2l-1-8-9-1v-1z" fill="#373025"/>
<path transform="translate(640,814)" d="m0 0h1l1 5 2 2v5l-3 2-1-1z" fill="#322E25"/>
<path transform="translate(523,760)" d="m0 0 2 4v10l-3 1v-12z" fill="#312B22"/>
<path transform="translate(927,454)" d="m0 0h2l-2 9-4 4-1-5 4-5z" fill="#A07D4F"/>
<path transform="translate(307,312)" d="m0 0h2l3 7 8 6-2 1-7-4-4-7z" fill="#E5CBA2"/>
<path transform="translate(521,143)" d="m0 0 2 1v10l-3 3v-11z" fill="#28251E"/>
<path transform="translate(749,958)" d="m0 0 3 3 6 11 1 2-4-2-4-7-2-4z" fill="#DFC59C"/>
<path transform="translate(720,867)" d="m0 0 1 3h2l1-2v5l-3 3h-2l-1 3-1-2z" fill="#40372A"/>
<path transform="translate(706,797)" d="m0 0h1l-1 11-2 6h-1v-9z" fill="#3B3327"/>
<path transform="translate(445,749)" d="m0 0 5 1 2 4-6 1-2-2z" fill="#1B1F21"/>
<path transform="translate(483,674)" d="m0 0 2 1 1 7h5v2h-8z" fill="#322F28"/>
<path transform="translate(487,484)" d="m0 0h8l2 1v3l-10-1z" fill="#202425"/>
<path transform="translate(942,470)" d="m0 0h8l3 3-6 1-2 3-1-4-3-2z" fill="#B19A69"/>
<path transform="translate(329,308)" d="m0 0 5 1v5h-6v-5z" fill="#CFAC74"/>
<path transform="translate(702,158)" d="m0 0h3l-2 5-1 12-2-4-1-10h3z" fill="#3B3428"/>
<path transform="translate(80,944)" d="m0 0 4 2h-2v2l-6 4-3 3-2-1 7-7z" fill="#816644"/>
<path transform="translate(646,641)" d="m0 0 12 3 4 3-8-1-9-3z" fill="#E9D3AF"/>
<path transform="translate(856,519)" d="m0 0h2v13l-2-2-5-1 4-4h2z" fill="#DAB77C"/>
<path transform="translate(612,484)" d="m0 0h8l2 2-4 2-8-1z" fill="#21211E"/>
<path transform="translate(401,484)" d="m0 0h5l2 7-4 1z" fill="#2E2F2D"/>
<path transform="translate(517,362)" d="m0 0 3 1 1 6-4 1-1-1v-6z" fill="#242523"/>
<path transform="translate(484,339)" d="m0 0 3 1 1 5-1 3h-4z" fill="#202120"/>
<path transform="translate(507,334)" d="m0 0 2 1 1 4v8l-3-1z" fill="#2C2720"/>
<path transform="translate(525,321)" d="m0 0 4 1 1 2-3 7-2-3z" fill="#30312F"/>
<path transform="translate(832,167)" d="m0 0h2l-1 3-8 7-4 5-2-1 9-10z" fill="#2F2C24"/>
<path transform="translate(932,82)" d="m0 0h3v2l-12 3-4-1 2-2z" fill="#E8D0A5"/>
<path transform="translate(571,896)" d="m0 0 2 1v5l-5 4 1-8z" fill="#23211C"/>
<path transform="translate(186,855)" d="m0 0m-1 1m-1 1m-2 1h2l-2 4-9 7-2-1z" fill="#C9A973"/>
<path transform="translate(344,810)" d="m0 0h2l2 5-1 5h-2l-2-5z" fill="#2A261F"/>
<path transform="translate(397,805)" d="m0 0 5 4h-3v2l2 1-2 2-4-1z" fill="#312C24"/>
<path transform="translate(573,757)" d="m0 0h1l1 17h-2l-1-9z" fill="#342E24"/>
<path transform="translate(358,345)" d="m0 0 6 1 11 5-3 1-13-5z" fill="#C9AC78"/>
<path transform="translate(706,318)" d="m0 0 2 1-3 3 3 2-10 4-2-1z" fill="#EDDABC"/>
<path transform="translate(347,225)" d="m0 0h1v7l-3 3h-2l1-9 2 1z" fill="#393228"/>
<path transform="translate(319,220)" d="m0 0 4 1v5l-2 1-5-5z" fill="#D6B37A"/>
<path transform="translate(507,205)" d="m0 0 2 2-1 5-5 5h-2v-5l1 2 3-3z" fill="#2E2A22"/>
<path transform="translate(815,161)" d="m0 0 3 4-1 4-6 5 2-8z" fill="#5D513B"/>
<path transform="translate(204,160)" d="m0 0 4 4 1 2 3-1 1 4-2 2-5-5z" fill="#494131"/>
<path transform="translate(715,156)" d="m0 0 2 4-3 3-3 4-1-6z" fill="#312D25"/>
<path transform="translate(576,147)" d="m0 0 4 1 2 5-1 1h-5z" fill="#161C21"/>
<path transform="translate(115,503)" d="m0 0 5 2 7 5v2l-5-2-7-5z" fill="#383228"/>
<path transform="translate(610,484)" d="m0 0 2 1v3l-5 4-3 1 1-5z" fill="#2E2D28"/>
<path transform="translate(98,474)" d="m0 0 6 1 3 3v3l-4-2-5-3z" fill="#AE9463"/>
<path transform="translate(519,357)" d="m0 0 3 2-5 4-1 6-2-3 1-6z" fill="#39332A"/>
<path transform="translate(783,955)" d="m0 0 2 4 1 1-1 7-3 3z" fill="#33302A"/>
<path transform="translate(604,880)" d="m0 0h4l1 8-4 4z" fill="#332E24"/>
<path transform="translate(455,876)" d="m0 0h2l1 3 3 2v2l-4 1-3-5z" fill="#2B2A26"/>
<path transform="translate(839,791)" d="m0 0 1 3-1 2-5 1h-9v-1l13-4z" fill="#39342A"/>
<path transform="translate(424,757)" d="m0 0h2l1 4-4 5-2-1 2-7z" fill="#312C23"/>
<path transform="translate(633,742)" d="m0 0h8v2h-2l-1 3-5-2z" fill="#DAB67C"/>
<path transform="translate(467,674)" d="m0 0h1v9h7v2h-10v-2h2z" fill="#4D4334"/>
<path transform="translate(336,656)" d="m0 0 3 2-10 6h-3l1-3z" fill="#D2B17A"/>
<path transform="translate(869,540)" d="m0 0 2 1-5 4-5 6-2-1 2-4z" fill="#3D372C"/>
<path transform="translate(475,332)" d="m0 0h4l-1 9-4-1v-2h2z" fill="#3D3A32"/>
<path transform="translate(273,75)" d="m0 0h2l3 5 3 2-6 1-2-4z" fill="#E2C9A0"/>
<path transform="translate(485,889)" d="m0 0h1v6h2l-1 8-2 1z" fill="#4A3F2E"/>
<path transform="translate(487,882)" d="m0 0h1v13h-2l-2-7-2-2h4z" fill="#26231D"/>
<path transform="translate(669,865)" d="m0 0h5v2h6l-4 2h-8z" fill="#171C1F"/>
<path transform="translate(179,858)" d="m0 0 1 3-8 7-3 3v-3z" fill="#322E25"/>
<path transform="translate(693,806)" d="m0 0 4 2v9h-2z" fill="#322C23"/>
<path transform="translate(288,797)" d="m0 0 10 1 2 2-1 1-9-1z" fill="#CCAC74"/>
<path transform="translate(690,750)" d="m0 0h2l1 9h-4z" fill="#302B22"/>
<path transform="translate(446,484)" d="m0 0h12v2l-10 1-2 2z" fill="#16191B"/>
<path transform="translate(786,409)" d="m0 0h9l-2 2-2-1v3l-5 1z" fill="#8E6F47"/>
<path transform="translate(536,357)" d="m0 0 2 1 1 3 4-1-1 2h-2l-1 3-4 1z" fill="#2C2B28"/>
<path transform="translate(485,336)" d="m0 0 5 1 4 5h-2l-1 3-4-6v-2z" fill="#2C2923"/>
<path transform="translate(443,198)" d="m0 0h7l1 3-3 1-8-1z" fill="#171B1F"/>
<path transform="translate(297,130)" d="m0 0 2 4 2 2h7l-1 2-6 1-5-3z" fill="#947349"/>
<path transform="translate(294,124)" d="m0 0h3v10h-2l-1-2z" fill="#765E3F"/>
<path transform="translate(522,822)" d="m0 0 4 4 1 5-4-1-1-4z" fill="#25231E"/>
<path transform="translate(430,824)" d="m0 0h1l-1 11-3 1 1-10h2z" fill="#3B3327"/>
<path transform="translate(162,676)" d="m0 0 1 4h7v2l-7 1-2 1v-7z" fill="#272621"/>
<path transform="translate(510,649)" d="m0 0h9l-1 5-2 1-1-3-5-1z" fill="#1B2023"/>
<path transform="translate(594,644)" d="m0 0 4 1-2 6h-4z" fill="#1E2224"/>
<path transform="translate(66,481)" d="m0 0h7l4 3v2l-10-3z" fill="#BCA16E"/>
<path transform="translate(468,396)" d="m0 0h2v2l-10 6h-2v-2z" fill="#202120"/>
<path transform="translate(631,386)" d="m0 0h8l-4 2-9 2-1-3z" fill="#E8D0A9"/>
<path transform="translate(687,367)" d="m0 0 2 1-3 6h-6l1-3z" fill="#E9D1A9"/>
<path transform="translate(470,349)" d="m0 0 2 1v2h5l-3 2h-3l-1 2-5-2 3-2 2 1z" fill="#33302B"/>
<path transform="translate(504,247)" d="m0 0h2l1 2 3 1-1 3-3 1-3-3z" fill="#202120"/>
<path transform="translate(921,148)" d="m0 0h4v2l8 4-1 3h-2l-5-5-2-1v-2z" fill="#E6CEA9"/>
<path transform="translate(76,76)" d="m0 0 4 4v8l-4-5z" fill="#DDBA7F"/>
<path transform="translate(985,984)" d="m0 0 5 4 2 4-1 3-3-4-4-6z" fill="#A27E4F"/>
<path transform="translate(932,939)" d="m0 0 7 5v1h-5l-3-2-5-2 4-1z" fill="#DCB87E"/>
<path transform="translate(81,935)" d="m0 0 4 1v3h-2l-1 3-3 2 1-7z" fill="#E5CAA0"/>
<path transform="translate(443,876)" d="m0 0 3 1-2 4 1 4-4-3 1-5z" fill="#342D24"/>
<path transform="translate(344,874)" d="m0 0h3l3 7-2 3-4-7z" fill="#1F1E1A"/>
<path transform="translate(331,861)" d="m0 0 4 4-2 4h-3z" fill="#2F2A22"/>
<path transform="translate(494,821)" d="m0 0h1v12h5v1l-5 1-2 2z" fill="#201F1C"/>
<path transform="translate(444,828)" d="m0 0 5 2-4 4h-3v-5z" fill="#2F2B23"/>
<path transform="translate(505,827)" d="m0 0h3l-1 6-5 1-2-2 4-1z" fill="#393228"/>
<path transform="translate(594,818)" d="m0 0 3 1v5l-6 1 2-6z" fill="#312B22"/>
<path transform="translate(466,810)" d="m0 0h2v3l2 1-2 5-3-2-1-4z" fill="#2F2B23"/>
<path transform="translate(470,769)" d="m0 0h9v3l-7 1v-2h-2z" fill="#2F2B23"/>
<path transform="translate(627,740)" d="m0 0 14 1v1h-8l-1 3z" fill="#B19A69"/>
<path transform="translate(790,650)" d="m0 0h6v2l3 1-8 1-1 2z" fill="#836743"/>
<path transform="translate(422,482)" d="m0 0 1 3v3h1v7l-1-4-4 2 2-10z" fill="#8F8167"/>
<path transform="translate(421,478)" d="m0 0 4 1-2 2-2 5h-3l-1-2z" fill="#39362F"/>
<path transform="translate(785,431)" d="m0 0 6 2-1 4h-5z" fill="#97764B"/>
<path transform="translate(501,252)" d="m0 0 3 1 1 4h-7l1-4z" fill="#DEBE8B"/>
<path transform="translate(648,217)" d="m0 0 3 1-1 10-3-1z" fill="#3B3328"/>
<path transform="translate(343,217)" d="m0 0 3 3 1 7-2 2-2-8z" fill="#1F1E1A"/>
<path transform="translate(559,213)" d="m0 0 3 1v8l-2 2-1-1z" fill="#29251F"/>
<path transform="translate(367,160)" d="m0 0 3 2-1 7-4 1z" fill="#3E362A"/>
<path transform="translate(490,144)" d="m0 0 2 4v9l-2 1-1-11z" fill="#322D24"/>
<path transform="translate(419,138)" d="m0 0 9 2 1 2h-10z" fill="#151E26"/>
</svg>
